<svg width="15" height="18" viewBox="0 0 15 18" fill="none" xmlns="http://www.w3.org/2000/svg">
<path d="M1.16659 17.3333C0.945572 17.3333 0.73361 17.2455 0.57733 17.0893C0.421049 16.933 0.333252 16.721 0.333252 16.5V9.83334C0.333252 9.61232 0.421049 9.40036 0.57733 9.24408C0.73361 9.0878 0.945572 9 1.16659 9C1.3876 9 1.59956 9.0878 1.75584 9.24408C1.91212 9.40036 1.99992 9.61232 1.99992 9.83334V16.5C1.99992 16.721 1.91212 16.933 1.75584 17.0893C1.59956 17.2455 1.3876 17.3333 1.16659 17.3333ZM5.33325 17.3333C5.11224 17.3333 4.90028 17.2455 4.744 17.0893C4.58772 16.933 4.49992 16.721 4.49992 16.5V1.5C4.49992 1.27899 4.58772 1.06703 4.744 0.910749C4.90028 0.754469 5.11224 0.666672 5.33325 0.666672C5.55427 0.666672 5.76623 0.754469 5.92251 0.910749C6.07879 1.06703 6.16659 1.27899 6.16659 1.5V16.5C6.16659 16.721 6.07879 16.933 5.92251 17.0893C5.76623 17.2455 5.55427 17.3333 5.33325 17.3333ZM9.49992 17.3333C9.2789 17.3333 9.06694 17.2455 8.91066 17.0893C8.75438 16.933 8.66659 16.721 8.66659 16.5V6.5C8.66659 6.27899 8.75438 6.06703 8.91066 5.91075C9.06694 5.75447 9.2789 5.66667 9.49992 5.66667C9.72093 5.66667 9.93289 5.75447 10.0892 5.91075C10.2455 6.06703 10.3333 6.27899 10.3333 6.5V16.5C10.3333 16.721 10.2455 16.933 10.0892 17.0893C9.93289 17.2455 9.72093 17.3333 9.49992 17.3333ZM13.6666 17.3333C13.4456 17.3333 13.2336 17.2455 13.0773 17.0893C12.921 16.933 12.8333 16.721 12.8333 16.5V13.1667C12.8333 12.9457 12.921 12.7337 13.0773 12.5774C13.2336 12.4211 13.4456 12.3333 13.6666 12.3333C13.8876 12.3333 14.0996 12.4211 14.2558 12.5774C14.4121 12.7337 14.4999 12.9457 14.4999 13.1667V16.5C14.4999 16.721 14.4121 16.933 14.2558 17.0893C14.0996 17.2455 13.8876 17.3333 13.6666 17.3333Z" fill="#424242"/>
</svg>
