<svg width="12" height="14" viewBox="0 0 12 14" fill="none" xmlns="http://www.w3.org/2000/svg">
<path d="M1.00008 12.8333H4.07675V8.6025C4.07675 8.41194 4.14147 8.25222 4.27092 8.12333C4.3998 7.99389 4.55953 7.92917 4.75008 7.92917H7.25008C7.44064 7.92917 7.60064 7.99389 7.73008 8.12333C7.85897 8.25222 7.92342 8.41194 7.92342 8.6025V12.8333H11.0001V5.59C11.0001 5.50444 10.9815 5.42667 10.9443 5.35667C10.907 5.28667 10.8562 5.22555 10.7917 5.17333L6.30508 1.79167C6.21953 1.71722 6.11786 1.68 6.00008 1.68C5.8823 1.68 5.78092 1.71722 5.69592 1.79167L1.20841 5.17333C1.14453 5.22667 1.09369 5.28778 1.05591 5.35667C1.01814 5.42556 0.999526 5.50333 1.00008 5.59V12.8333ZM0.166748 12.8333V5.59C0.166748 5.37667 0.214526 5.17472 0.310081 4.98417C0.405637 4.79361 0.537304 4.63667 0.705081 4.51333L5.19258 1.115C5.42758 0.935555 5.69592 0.845833 5.99758 0.845833C6.29925 0.845833 6.56925 0.935555 6.80758 1.115L11.2951 4.5125C11.4634 4.63583 11.5951 4.79306 11.6901 4.98417C11.7856 5.17472 11.8334 5.37667 11.8334 5.59V12.8333C11.8334 13.0567 11.7504 13.2514 11.5842 13.4175C11.4181 13.5836 11.2234 13.6667 11.0001 13.6667H7.76342C7.5723 13.6667 7.4123 13.6022 7.28342 13.4733C7.15453 13.3439 7.09008 13.1839 7.09008 12.9933V8.76333H4.91008V12.9933C4.91008 13.1844 4.84564 13.3444 4.71675 13.4733C4.58786 13.6022 4.42814 13.6667 4.23758 13.6667H1.00008C0.776748 13.6667 0.582026 13.5836 0.415915 13.4175C0.249803 13.2514 0.166748 13.0567 0.166748 12.8333Z" fill="#424242"/>
</svg>
