<svg width="12" height="13" viewBox="0 0 12 13" fill="none" xmlns="http://www.w3.org/2000/svg">
<path d="M3.08325 11.33V8.91667H1.41659C1.19557 8.91667 0.98361 8.82887 0.82733 8.67259C0.671049 8.51631 0.583252 8.30435 0.583252 8.08334V2.25001C0.583252 2.02899 0.671049 1.81703 0.82733 1.66075C0.98361 1.50447 1.19557 1.41667 1.41659 1.41667H10.5833C10.8043 1.41667 11.0162 1.50447 11.1725 1.66075C11.3288 1.81703 11.4166 2.02899 11.4166 2.25001V8.08334C11.4166 8.30435 11.3288 8.51631 11.1725 8.67259C11.0162 8.82887 10.8043 8.91667 10.5833 8.91667H5.99992L3.43909 11.4775C3.40995 11.5067 3.37279 11.5266 3.33233 11.5347C3.29187 11.5428 3.24992 11.5386 3.21181 11.5228C3.17369 11.507 3.14113 11.4803 3.11824 11.4459C3.09536 11.4116 3.08318 11.3713 3.08325 11.33Z" stroke="#424242"/>
<path d="M3.08325 6.41667H8.91659M3.08325 3.91667H8.91659" stroke="#424242" stroke-linecap="round"/>
</svg>
