<svg width="114" height="114" viewBox="0 0 114 114" fill="none" xmlns="http://www.w3.org/2000/svg">
<rect x="0.5" y="0.5" width="113" height="113" rx="6.5" stroke="#F7F7F8"/>
<path d="M47.6 61.108C46.96 61.108 46.408 61.016 45.944 60.832C45.488 60.648 45.136 60.38 44.888 60.028C44.648 59.668 44.528 59.24 44.528 58.744C44.528 58.344 44.608 57.992 44.768 57.688C44.928 57.376 45.152 57.124 45.44 56.932C45.728 56.74 46.06 56.62 46.436 56.572V56.788C45.916 56.676 45.5 56.432 45.188 56.056C44.884 55.672 44.732 55.216 44.732 54.688C44.732 54.216 44.848 53.812 45.08 53.476C45.32 53.132 45.656 52.872 46.088 52.696C46.52 52.52 47.024 52.432 47.6 52.432C48.184 52.432 48.692 52.52 49.124 52.696C49.556 52.872 49.888 53.132 50.12 53.476C50.36 53.812 50.48 54.216 50.48 54.688C50.48 55.04 50.408 55.364 50.264 55.66C50.128 55.948 49.932 56.192 49.676 56.392C49.42 56.584 49.12 56.712 48.776 56.776V56.572C49.344 56.652 49.8 56.888 50.144 57.28C50.496 57.664 50.672 58.152 50.672 58.744C50.672 59.24 50.548 59.668 50.3 60.028C50.06 60.38 49.712 60.648 49.256 60.832C48.8 61.016 48.248 61.108 47.6 61.108ZM47.6 60.124C48.232 60.124 48.708 60.004 49.028 59.764C49.348 59.516 49.508 59.148 49.508 58.66C49.508 58.172 49.348 57.808 49.028 57.568C48.708 57.328 48.232 57.208 47.6 57.208C46.976 57.208 46.5 57.328 46.172 57.568C45.852 57.808 45.692 58.172 45.692 58.66C45.692 59.148 45.852 59.516 46.172 59.764C46.5 60.004 46.976 60.124 47.6 60.124ZM47.6 56.224C47.96 56.224 48.264 56.168 48.512 56.056C48.768 55.936 48.964 55.772 49.1 55.564C49.236 55.348 49.304 55.096 49.304 54.808C49.304 54.376 49.152 54.036 48.848 53.788C48.552 53.54 48.136 53.416 47.6 53.416C47.064 53.416 46.648 53.54 46.352 53.788C46.056 54.036 45.908 54.376 45.908 54.808C45.908 55.248 46.056 55.596 46.352 55.852C46.648 56.1 47.064 56.224 47.6 56.224ZM54.7953 61.108C53.8113 61.108 53.0593 60.736 52.5393 59.992C52.0273 59.24 51.7713 58.164 51.7713 56.764C51.7713 55.812 51.8873 55.016 52.1193 54.376C52.3513 53.736 52.6913 53.252 53.1393 52.924C53.5873 52.596 54.1393 52.432 54.7953 52.432C55.7873 52.432 56.5393 52.8 57.0513 53.536C57.5633 54.264 57.8193 55.336 57.8193 56.752C57.8193 57.688 57.7033 58.48 57.4713 59.128C57.2393 59.776 56.8993 60.268 56.4513 60.604C56.0033 60.94 55.4513 61.108 54.7953 61.108ZM54.7953 60.076C55.4113 60.076 55.8633 59.808 56.1513 59.272C56.4473 58.728 56.5953 57.888 56.5953 56.752C56.5953 55.608 56.4473 54.776 56.1513 54.256C55.8633 53.728 55.4113 53.464 54.7953 53.464C54.1873 53.464 53.7353 53.728 53.4393 54.256C53.1433 54.776 52.9953 55.608 52.9953 56.752C52.9953 57.888 53.1433 58.728 53.4393 59.272C53.7353 59.808 54.1873 60.076 54.7953 60.076ZM62.1466 60.964C62.0826 61.084 61.9986 61.164 61.8946 61.204C61.7986 61.244 61.7026 61.252 61.6066 61.228C61.5106 61.204 61.4306 61.156 61.3666 61.084C61.3026 61.012 61.2626 60.924 61.2466 60.82C61.2386 60.716 61.2666 60.604 61.3306 60.484L65.8666 52.6C65.9306 52.472 66.0106 52.388 66.1066 52.348C66.2106 52.308 66.3066 52.3 66.3946 52.324C66.4906 52.348 66.5706 52.396 66.6346 52.468C66.7066 52.54 66.7506 52.628 66.7666 52.732C66.7826 52.836 66.7546 52.948 66.6826 53.068L62.1466 60.964ZM61.0786 57.604C60.4226 57.604 59.9106 57.376 59.5426 56.92C59.1746 56.456 58.9906 55.82 58.9906 55.012C58.9906 54.468 59.0746 54.004 59.2426 53.62C59.4106 53.236 59.6506 52.944 59.9626 52.744C60.2746 52.536 60.6466 52.432 61.0786 52.432C61.7266 52.432 62.2346 52.66 62.6026 53.116C62.9786 53.572 63.1666 54.204 63.1666 55.012C63.1666 55.548 63.0826 56.012 62.9146 56.404C62.7546 56.788 62.5186 57.084 62.2066 57.292C61.8946 57.5 61.5186 57.604 61.0786 57.604ZM61.0786 56.752C61.3026 56.752 61.4946 56.688 61.6546 56.56C61.8146 56.432 61.9346 56.24 62.0146 55.984C62.1026 55.728 62.1466 55.404 62.1466 55.012C62.1466 54.428 62.0506 53.992 61.8586 53.704C61.6746 53.416 61.4146 53.272 61.0786 53.272C60.8546 53.272 60.6626 53.336 60.5026 53.464C60.3426 53.592 60.2186 53.784 60.1306 54.04C60.0506 54.296 60.0106 54.62 60.0106 55.012C60.0106 55.604 60.1026 56.044 60.2866 56.332C60.4786 56.612 60.7426 56.752 61.0786 56.752ZM66.9466 61.108C66.2986 61.108 65.7906 60.88 65.4226 60.424C65.0546 59.968 64.8706 59.332 64.8706 58.516C64.8706 57.98 64.9506 57.52 65.1106 57.136C65.2786 56.752 65.5186 56.456 65.8306 56.248C66.1426 56.04 66.5146 55.936 66.9466 55.936C67.6026 55.936 68.1146 56.168 68.4826 56.632C68.8506 57.088 69.0346 57.716 69.0346 58.516C69.0346 59.06 68.9506 59.528 68.7826 59.92C68.6226 60.304 68.3866 60.6 68.0746 60.808C67.7626 61.008 67.3866 61.108 66.9466 61.108ZM66.9466 60.268C67.1706 60.268 67.3626 60.204 67.5226 60.076C67.6826 59.948 67.8026 59.756 67.8826 59.5C67.9706 59.236 68.0146 58.908 68.0146 58.516C68.0146 57.94 67.9186 57.508 67.7266 57.22C67.5426 56.932 67.2826 56.788 66.9466 56.788C66.7306 56.788 66.5386 56.852 66.3706 56.98C66.2106 57.108 66.0866 57.3 65.9986 57.556C65.9186 57.812 65.8786 58.132 65.8786 58.516C65.8786 59.108 65.9746 59.548 66.1666 59.836C66.3586 60.124 66.6186 60.268 66.9466 60.268Z" fill="#030229"/>
<circle cx="56.8627" cy="56.8627" r="33.8627" stroke="#5B93FF" stroke-opacity="0.05" stroke-width="6"/>
<path d="M55.606 24.308C55.5085 22.0231 57.2867 20.0675 59.5681 20.2269C65.9047 20.6694 72.0449 22.7444 77.3771 26.2816C83.8642 30.5848 88.8225 36.8313 91.5412 44.1258C94.26 51.4202 94.5997 59.3881 92.5117 66.8874C90.4237 74.3868 86.0151 81.0327 79.9178 85.8725C73.8206 90.7123 66.3476 93.4976 58.5701 93.8292C50.7925 94.1608 43.1096 92.0217 36.6225 87.7184C30.1354 83.4152 25.1772 77.1687 22.4584 69.8743C20.2236 63.8784 19.5963 57.4275 20.6033 51.1558C20.9659 48.8978 23.274 47.6098 25.4771 48.2233C27.6803 48.8367 28.9368 51.121 28.6479 53.3896C28.0659 57.9604 28.5953 62.626 30.2188 66.9818C32.3267 72.6374 36.171 77.4805 41.2007 80.817C46.2303 84.1534 52.1871 85.812 58.2173 85.5549C64.2475 85.2977 70.0415 83.1382 74.7689 79.3857C79.4963 75.6333 82.9144 70.4806 84.5333 64.6661C86.1522 58.8515 85.8888 52.6738 83.7809 47.0182C81.6729 41.3626 77.8286 36.5195 72.799 33.183C68.9253 30.6134 64.5016 29.039 59.9179 28.5685C57.6429 28.335 55.7034 26.5929 55.606 24.308Z" fill="#00D907"/>
</svg>
