<svg width="708" height="408" viewBox="0 0 708 408" fill="none" xmlns="http://www.w3.org/2000/svg">
<rect width="702" height="408" rx="10" fill="white"/>
<g opacity="0.3">
<path d="M676.487 36.0126C675.804 35.3292 674.696 35.3292 674.013 36.0126C673.329 36.696 673.329 37.804 674.013 38.4874C674.696 39.1709 675.804 39.1709 676.487 38.4874C677.171 37.8041 677.171 36.696 676.487 36.0126Z" fill="black"/>
<path d="M671.237 36.0126C670.554 35.3292 669.446 35.3292 668.763 36.0126C668.079 36.696 668.079 37.804 668.763 38.4874C669.446 39.1709 670.554 39.1709 671.237 38.4874C671.921 37.8041 671.921 36.696 671.237 36.0126Z" fill="black"/>
<path d="M665.987 36.0126C665.304 35.3292 664.196 35.3292 663.513 36.0126C662.829 36.696 662.829 37.804 663.513 38.4874C664.196 39.1709 665.304 39.1709 665.987 38.4874C666.671 37.8041 666.671 36.696 665.987 36.0126Z" fill="black"/>
</g>
<line opacity="0.05" x1="62" y1="344.5" x2="702" y2="344.5" stroke="black"/>
<line opacity="0.05" x1="62" y1="293.5" x2="702" y2="293.5" stroke="black"/>
<line opacity="0.05" x1="62" y1="242.5" x2="702" y2="242.5" stroke="black"/>
<line opacity="0.05" x1="62" y1="191.5" x2="702" y2="191.5" stroke="black"/>
<line opacity="0.05" x1="62" y1="140.5" x2="702" y2="140.5" stroke="black"/>
<line opacity="0.05" x1="62" y1="89.5" x2="702" y2="89.5" stroke="black"/>
<g opacity="0.7">
<path opacity="0.7" d="M33.1574 94C32.9814 94 32.8494 93.96 32.7614 93.88C32.6814 93.792 32.6414 93.676 32.6414 93.532C32.6414 93.444 32.6614 93.36 32.7014 93.28C32.7494 93.192 32.8134 93.104 32.8934 93.016L35.5814 90.136C35.9894 89.696 36.2814 89.292 36.4574 88.924C36.6414 88.548 36.7334 88.168 36.7334 87.784C36.7334 87.304 36.5854 86.94 36.2894 86.692C36.0014 86.436 35.5774 86.308 35.0174 86.308C34.6574 86.308 34.3174 86.364 33.9974 86.476C33.6774 86.588 33.3694 86.76 33.0734 86.992C32.9694 87.072 32.8734 87.108 32.7854 87.1C32.7054 87.092 32.6334 87.06 32.5694 87.004C32.5054 86.948 32.4614 86.876 32.4374 86.788C32.4134 86.7 32.4134 86.612 32.4374 86.524C32.4694 86.436 32.5334 86.356 32.6294 86.284C32.9414 86.028 33.3174 85.824 33.7574 85.672C34.1974 85.512 34.6454 85.432 35.1014 85.432C35.6694 85.432 36.1494 85.52 36.5414 85.696C36.9334 85.872 37.2294 86.132 37.4294 86.476C37.6294 86.812 37.7294 87.224 37.7294 87.712C37.7294 88.048 37.6734 88.38 37.5614 88.708C37.4574 89.028 37.2934 89.356 37.0694 89.692C36.8534 90.028 36.5694 90.376 36.2174 90.736L33.6614 93.436V93.16H37.7054C37.8574 93.16 37.9694 93.196 38.0414 93.268C38.1214 93.332 38.1614 93.432 38.1614 93.568C38.1614 93.712 38.1214 93.82 38.0414 93.892C37.9694 93.964 37.8574 94 37.7054 94H33.1574ZM42.5847 94.108C42.1287 94.108 41.6727 94.04 41.2167 93.904C40.7687 93.768 40.3607 93.556 39.9927 93.268C39.8967 93.204 39.8327 93.128 39.8007 93.04C39.7687 92.952 39.7647 92.864 39.7887 92.776C39.8127 92.688 39.8567 92.616 39.9207 92.56C39.9847 92.496 40.0607 92.46 40.1487 92.452C40.2447 92.444 40.3447 92.476 40.4487 92.548C40.7767 92.78 41.1167 92.952 41.4687 93.064C41.8207 93.176 42.1887 93.232 42.5727 93.232C42.9647 93.232 43.3007 93.16 43.5807 93.016C43.8687 92.864 44.0847 92.656 44.2287 92.392C44.3807 92.12 44.4567 91.804 44.4567 91.444C44.4567 90.892 44.2967 90.44 43.9767 90.088C43.6567 89.736 43.2167 89.56 42.6567 89.56C42.3127 89.56 41.9967 89.624 41.7087 89.752C41.4207 89.88 41.1567 90.084 40.9167 90.364C40.8607 90.428 40.7927 90.484 40.7127 90.532C40.6407 90.572 40.5567 90.592 40.4607 90.592C40.3247 90.592 40.2167 90.556 40.1367 90.484C40.0647 90.404 40.0287 90.3 40.0287 90.172V85.996C40.0287 85.844 40.0687 85.732 40.1487 85.66C40.2287 85.58 40.3407 85.54 40.4847 85.54H44.5647C44.7167 85.54 44.8287 85.576 44.9007 85.648C44.9807 85.72 45.0207 85.824 45.0207 85.96C45.0207 86.096 44.9807 86.2 44.9007 86.272C44.8287 86.344 44.7167 86.38 44.5647 86.38H41.0007V89.752H40.7367C40.9447 89.416 41.2327 89.16 41.6007 88.984C41.9687 88.8 42.3807 88.708 42.8367 88.708C43.3727 88.708 43.8327 88.82 44.2167 89.044C44.6087 89.268 44.9087 89.584 45.1167 89.992C45.3327 90.392 45.4407 90.86 45.4407 91.396C45.4407 91.924 45.3247 92.392 45.0927 92.8C44.8607 93.208 44.5327 93.528 44.1087 93.76C43.6847 93.992 43.1767 94.108 42.5847 94.108Z" fill="black"/>
<path opacity="0.7" d="M33.1574 145C32.9814 145 32.8494 144.96 32.7614 144.88C32.6814 144.792 32.6414 144.676 32.6414 144.532C32.6414 144.444 32.6614 144.36 32.7014 144.28C32.7494 144.192 32.8134 144.104 32.8934 144.016L35.5814 141.136C35.9894 140.696 36.2814 140.292 36.4574 139.924C36.6414 139.548 36.7334 139.168 36.7334 138.784C36.7334 138.304 36.5854 137.94 36.2894 137.692C36.0014 137.436 35.5774 137.308 35.0174 137.308C34.6574 137.308 34.3174 137.364 33.9974 137.476C33.6774 137.588 33.3694 137.76 33.0734 137.992C32.9694 138.072 32.8734 138.108 32.7854 138.1C32.7054 138.092 32.6334 138.06 32.5694 138.004C32.5054 137.948 32.4614 137.876 32.4374 137.788C32.4134 137.7 32.4134 137.612 32.4374 137.524C32.4694 137.436 32.5334 137.356 32.6294 137.284C32.9414 137.028 33.3174 136.824 33.7574 136.672C34.1974 136.512 34.6454 136.432 35.1014 136.432C35.6694 136.432 36.1494 136.52 36.5414 136.696C36.9334 136.872 37.2294 137.132 37.4294 137.476C37.6294 137.812 37.7294 138.224 37.7294 138.712C37.7294 139.048 37.6734 139.38 37.5614 139.708C37.4574 140.028 37.2934 140.356 37.0694 140.692C36.8534 141.028 36.5694 141.376 36.2174 141.736L33.6614 144.436V144.16H37.7054C37.8574 144.16 37.9694 144.196 38.0414 144.268C38.1214 144.332 38.1614 144.432 38.1614 144.568C38.1614 144.712 38.1214 144.82 38.0414 144.892C37.9694 144.964 37.8574 145 37.7054 145H33.1574ZM42.4047 145.108C41.4367 145.108 40.7007 144.736 40.1967 143.992C39.6927 143.248 39.4407 142.172 39.4407 140.764C39.4407 139.82 39.5527 139.028 39.7767 138.388C40.0007 137.74 40.3327 137.252 40.7727 136.924C41.2207 136.596 41.7647 136.432 42.4047 136.432C43.3807 136.432 44.1167 136.8 44.6127 137.536C45.1167 138.264 45.3687 139.336 45.3687 140.752C45.3687 141.696 45.2567 142.492 45.0327 143.14C44.8087 143.788 44.4767 144.28 44.0367 144.616C43.5967 144.944 43.0527 145.108 42.4047 145.108ZM42.4047 144.256C43.0767 144.256 43.5727 143.972 43.8927 143.404C44.2207 142.828 44.3847 141.944 44.3847 140.752C44.3847 139.552 44.2207 138.676 43.8927 138.124C43.5727 137.564 43.0767 137.284 42.4047 137.284C41.7407 137.284 41.2447 137.564 40.9167 138.124C40.5887 138.684 40.4247 139.56 40.4247 140.752C40.4247 141.944 40.5887 142.828 40.9167 143.404C41.2447 143.972 41.7407 144.256 42.4047 144.256Z" fill="black"/>
<path opacity="0.7" d="M33.4694 196C33.3254 196 33.2134 195.964 33.1334 195.892C33.0534 195.812 33.0134 195.704 33.0134 195.568C33.0134 195.432 33.0534 195.332 33.1334 195.268C33.2134 195.196 33.3254 195.16 33.4694 195.16H35.0294V188.356H35.5454L33.8054 189.508C33.7014 189.564 33.6014 189.588 33.5054 189.58C33.4174 189.572 33.3414 189.54 33.2774 189.484C33.2214 189.42 33.1814 189.348 33.1574 189.268C33.1334 189.18 33.1374 189.092 33.1694 189.004C33.2014 188.908 33.2694 188.828 33.3734 188.764L35.0294 187.672C35.1334 187.608 35.2334 187.556 35.3294 187.516C35.4254 187.476 35.5214 187.456 35.6174 187.456C35.7294 187.456 35.8214 187.492 35.8934 187.564C35.9734 187.628 36.0134 187.732 36.0134 187.876V195.16H37.4534C37.5974 195.16 37.7094 195.196 37.7894 195.268C37.8694 195.332 37.9094 195.432 37.9094 195.568C37.9094 195.712 37.8694 195.82 37.7894 195.892C37.7094 195.964 37.5974 196 37.4534 196H33.4694ZM42.5847 196.108C42.1287 196.108 41.6727 196.04 41.2167 195.904C40.7687 195.768 40.3607 195.556 39.9927 195.268C39.8967 195.204 39.8327 195.128 39.8007 195.04C39.7687 194.952 39.7647 194.864 39.7887 194.776C39.8127 194.688 39.8567 194.616 39.9207 194.56C39.9847 194.496 40.0607 194.46 40.1487 194.452C40.2447 194.444 40.3447 194.476 40.4487 194.548C40.7767 194.78 41.1167 194.952 41.4687 195.064C41.8207 195.176 42.1887 195.232 42.5727 195.232C42.9647 195.232 43.3007 195.16 43.5807 195.016C43.8687 194.864 44.0847 194.656 44.2287 194.392C44.3807 194.12 44.4567 193.804 44.4567 193.444C44.4567 192.892 44.2967 192.44 43.9767 192.088C43.6567 191.736 43.2167 191.56 42.6567 191.56C42.3127 191.56 41.9967 191.624 41.7087 191.752C41.4207 191.88 41.1567 192.084 40.9167 192.364C40.8607 192.428 40.7927 192.484 40.7127 192.532C40.6407 192.572 40.5567 192.592 40.4607 192.592C40.3247 192.592 40.2167 192.556 40.1367 192.484C40.0647 192.404 40.0287 192.3 40.0287 192.172V187.996C40.0287 187.844 40.0687 187.732 40.1487 187.66C40.2287 187.58 40.3407 187.54 40.4847 187.54H44.5647C44.7167 187.54 44.8287 187.576 44.9007 187.648C44.9807 187.72 45.0207 187.824 45.0207 187.96C45.0207 188.096 44.9807 188.2 44.9007 188.272C44.8287 188.344 44.7167 188.38 44.5647 188.38H41.0007V191.752H40.7367C40.9447 191.416 41.2327 191.16 41.6007 190.984C41.9687 190.8 42.3807 190.708 42.8367 190.708C43.3727 190.708 43.8327 190.82 44.2167 191.044C44.6087 191.268 44.9087 191.584 45.1167 191.992C45.3327 192.392 45.4407 192.86 45.4407 193.396C45.4407 193.924 45.3247 194.392 45.0927 194.8C44.8607 195.208 44.5327 195.528 44.1087 195.76C43.6847 195.992 43.1767 196.108 42.5847 196.108Z" fill="black"/>
<path opacity="0.7" d="M33.4694 247C33.3254 247 33.2134 246.964 33.1334 246.892C33.0534 246.812 33.0134 246.704 33.0134 246.568C33.0134 246.432 33.0534 246.332 33.1334 246.268C33.2134 246.196 33.3254 246.16 33.4694 246.16H35.0294V239.356H35.5454L33.8054 240.508C33.7014 240.564 33.6014 240.588 33.5054 240.58C33.4174 240.572 33.3414 240.54 33.2774 240.484C33.2214 240.42 33.1814 240.348 33.1574 240.268C33.1334 240.18 33.1374 240.092 33.1694 240.004C33.2014 239.908 33.2694 239.828 33.3734 239.764L35.0294 238.672C35.1334 238.608 35.2334 238.556 35.3294 238.516C35.4254 238.476 35.5214 238.456 35.6174 238.456C35.7294 238.456 35.8214 238.492 35.8934 238.564C35.9734 238.628 36.0134 238.732 36.0134 238.876V246.16H37.4534C37.5974 246.16 37.7094 246.196 37.7894 246.268C37.8694 246.332 37.9094 246.432 37.9094 246.568C37.9094 246.712 37.8694 246.82 37.7894 246.892C37.7094 246.964 37.5974 247 37.4534 247H33.4694ZM42.4047 247.108C41.4367 247.108 40.7007 246.736 40.1967 245.992C39.6927 245.248 39.4407 244.172 39.4407 242.764C39.4407 241.82 39.5527 241.028 39.7767 240.388C40.0007 239.74 40.3327 239.252 40.7727 238.924C41.2207 238.596 41.7647 238.432 42.4047 238.432C43.3807 238.432 44.1167 238.8 44.6127 239.536C45.1167 240.264 45.3687 241.336 45.3687 242.752C45.3687 243.696 45.2567 244.492 45.0327 245.14C44.8087 245.788 44.4767 246.28 44.0367 246.616C43.5967 246.944 43.0527 247.108 42.4047 247.108ZM42.4047 246.256C43.0767 246.256 43.5727 245.972 43.8927 245.404C44.2207 244.828 44.3847 243.944 44.3847 242.752C44.3847 241.552 44.2207 240.676 43.8927 240.124C43.5727 239.564 43.0767 239.284 42.4047 239.284C41.7407 239.284 41.2447 239.564 40.9167 240.124C40.5887 240.684 40.4247 241.56 40.4247 242.752C40.4247 243.944 40.5887 244.828 40.9167 245.404C41.2447 245.972 41.7407 246.256 42.4047 246.256Z" fill="black"/>
<path opacity="0.7" d="M35.2094 298.108C34.2414 298.108 33.5054 297.736 33.0014 296.992C32.4974 296.248 32.2454 295.172 32.2454 293.764C32.2454 292.82 32.3574 292.028 32.5814 291.388C32.8054 290.74 33.1374 290.252 33.5774 289.924C34.0254 289.596 34.5694 289.432 35.2094 289.432C36.1854 289.432 36.9214 289.8 37.4174 290.536C37.9214 291.264 38.1734 292.336 38.1734 293.752C38.1734 294.696 38.0614 295.492 37.8374 296.14C37.6134 296.788 37.2814 297.28 36.8414 297.616C36.4014 297.944 35.8574 298.108 35.2094 298.108ZM35.2094 297.256C35.8814 297.256 36.3774 296.972 36.6974 296.404C37.0254 295.828 37.1894 294.944 37.1894 293.752C37.1894 292.552 37.0254 291.676 36.6974 291.124C36.3774 290.564 35.8814 290.284 35.2094 290.284C34.5454 290.284 34.0494 290.564 33.7214 291.124C33.3934 291.684 33.2294 292.56 33.2294 293.752C33.2294 294.944 33.3934 295.828 33.7214 296.404C34.0494 296.972 34.5454 297.256 35.2094 297.256ZM42.5847 298.108C42.1287 298.108 41.6727 298.04 41.2167 297.904C40.7687 297.768 40.3607 297.556 39.9927 297.268C39.8967 297.204 39.8327 297.128 39.8007 297.04C39.7687 296.952 39.7647 296.864 39.7887 296.776C39.8127 296.688 39.8567 296.616 39.9207 296.56C39.9847 296.496 40.0607 296.46 40.1487 296.452C40.2447 296.444 40.3447 296.476 40.4487 296.548C40.7767 296.78 41.1167 296.952 41.4687 297.064C41.8207 297.176 42.1887 297.232 42.5727 297.232C42.9647 297.232 43.3007 297.16 43.5807 297.016C43.8687 296.864 44.0847 296.656 44.2287 296.392C44.3807 296.12 44.4567 295.804 44.4567 295.444C44.4567 294.892 44.2967 294.44 43.9767 294.088C43.6567 293.736 43.2167 293.56 42.6567 293.56C42.3127 293.56 41.9967 293.624 41.7087 293.752C41.4207 293.88 41.1567 294.084 40.9167 294.364C40.8607 294.428 40.7927 294.484 40.7127 294.532C40.6407 294.572 40.5567 294.592 40.4607 294.592C40.3247 294.592 40.2167 294.556 40.1367 294.484C40.0647 294.404 40.0287 294.3 40.0287 294.172V289.996C40.0287 289.844 40.0687 289.732 40.1487 289.66C40.2287 289.58 40.3407 289.54 40.4847 289.54H44.5647C44.7167 289.54 44.8287 289.576 44.9007 289.648C44.9807 289.72 45.0207 289.824 45.0207 289.96C45.0207 290.096 44.9807 290.2 44.9007 290.272C44.8287 290.344 44.7167 290.38 44.5647 290.38H41.0007V293.752H40.7367C40.9447 293.416 41.2327 293.16 41.6007 292.984C41.9687 292.8 42.3807 292.708 42.8367 292.708C43.3727 292.708 43.8327 292.82 44.2167 293.044C44.6087 293.268 44.9087 293.584 45.1167 293.992C45.3327 294.392 45.4407 294.86 45.4407 295.396C45.4407 295.924 45.3247 296.392 45.0927 296.8C44.8607 297.208 44.5327 297.528 44.1087 297.76C43.6847 297.992 43.1767 298.108 42.5847 298.108Z" fill="black"/>
<path opacity="0.7" d="M42.4047 349.108C41.4367 349.108 40.7007 348.736 40.1967 347.992C39.6927 347.248 39.4407 346.172 39.4407 344.764C39.4407 343.82 39.5527 343.028 39.7767 342.388C40.0007 341.74 40.3327 341.252 40.7727 340.924C41.2207 340.596 41.7647 340.432 42.4047 340.432C43.3807 340.432 44.1167 340.8 44.6127 341.536C45.1167 342.264 45.3687 343.336 45.3687 344.752C45.3687 345.696 45.2567 346.492 45.0327 347.14C44.8087 347.788 44.4767 348.28 44.0367 348.616C43.5967 348.944 43.0527 349.108 42.4047 349.108ZM42.4047 348.256C43.0767 348.256 43.5727 347.972 43.8927 347.404C44.2207 346.828 44.3847 345.944 44.3847 344.752C44.3847 343.552 44.2207 342.676 43.8927 342.124C43.5727 341.564 43.0767 341.284 42.4047 341.284C41.7407 341.284 41.2447 341.564 40.9167 342.124C40.5887 342.684 40.4247 343.56 40.4247 344.752C40.4247 345.944 40.5887 346.828 40.9167 347.404C41.2447 347.972 41.7407 348.256 42.4047 348.256Z" fill="black"/>
</g>
<g opacity="0.7">
<path opacity="0.7" d="M66.756 372.084C66.612 372.084 66.496 372.048 66.408 371.976C66.32 371.896 66.248 371.78 66.192 371.628L63.54 364.056C63.484 363.888 63.496 363.748 63.576 363.636C63.664 363.516 63.8 363.456 63.984 363.456C64.12 363.456 64.228 363.492 64.308 363.564C64.388 363.628 64.456 363.732 64.512 363.876L66.996 371.16H66.576L69.108 363.912C69.164 363.76 69.232 363.648 69.312 363.576C69.392 363.496 69.5 363.456 69.636 363.456C69.764 363.456 69.864 363.496 69.936 363.576C70.016 363.648 70.084 363.76 70.14 363.912L72.636 371.16H72.264L74.772 363.876C74.812 363.74 74.872 363.636 74.952 363.564C75.04 363.492 75.152 363.456 75.288 363.456C75.456 363.456 75.58 363.512 75.66 363.624C75.74 363.736 75.748 363.88 75.684 364.056L73.02 371.628C72.964 371.78 72.892 371.896 72.804 371.976C72.724 372.048 72.608 372.084 72.456 372.084C72.312 372.084 72.196 372.048 72.108 371.976C72.028 371.896 71.956 371.78 71.892 371.628L69.48 364.68H69.744L67.308 371.628C67.252 371.78 67.184 371.896 67.104 371.976C67.024 372.048 66.908 372.084 66.756 372.084ZM79.0439 372.108C78.4279 372.108 77.8959 371.988 77.4479 371.748C77.0079 371.5 76.6639 371.152 76.4159 370.704C76.1759 370.256 76.0559 369.72 76.0559 369.096C76.0559 368.488 76.1759 367.96 76.4159 367.512C76.6559 367.056 76.9839 366.7 77.3999 366.444C77.8239 366.188 78.3119 366.06 78.8639 366.06C79.2559 366.06 79.6079 366.128 79.9199 366.264C80.2319 366.392 80.4959 366.58 80.7119 366.828C80.9359 367.076 81.1039 367.376 81.2159 367.728C81.3359 368.08 81.3959 368.476 81.3959 368.916C81.3959 369.044 81.3599 369.14 81.2879 369.204C81.2159 369.26 81.1119 369.288 80.9759 369.288H76.7999V368.652H80.7479L80.5559 368.808C80.5559 368.376 80.4919 368.012 80.3639 367.716C80.2359 367.412 80.0479 367.18 79.7999 367.02C79.5599 366.86 79.2559 366.78 78.8879 366.78C78.4799 366.78 78.1319 366.876 77.8439 367.068C77.5639 367.252 77.3519 367.512 77.2079 367.848C77.0639 368.176 76.9919 368.56 76.9919 369V369.072C76.9919 369.808 77.1679 370.368 77.5199 370.752C77.8799 371.136 78.3879 371.328 79.0439 371.328C79.3159 371.328 79.5839 371.292 79.8479 371.22C80.1199 371.148 80.3839 371.028 80.6399 370.86C80.7519 370.788 80.8519 370.756 80.9399 370.764C81.0359 370.764 81.1119 370.792 81.1679 370.848C81.2239 370.896 81.2599 370.96 81.2759 371.04C81.2999 371.112 81.2919 371.192 81.2519 371.28C81.2199 371.368 81.1519 371.444 81.0479 371.508C80.7839 371.7 80.4719 371.848 80.1119 371.952C79.7519 372.056 79.3959 372.108 79.0439 372.108ZM85.4306 372.108C84.8146 372.108 84.2826 371.988 83.8346 371.748C83.3946 371.5 83.0506 371.152 82.8026 370.704C82.5626 370.256 82.4426 369.72 82.4426 369.096C82.4426 368.488 82.5626 367.96 82.8026 367.512C83.0426 367.056 83.3706 366.7 83.7866 366.444C84.2106 366.188 84.6986 366.06 85.2506 366.06C85.6426 366.06 85.9946 366.128 86.3066 366.264C86.6186 366.392 86.8826 366.58 87.0986 366.828C87.3226 367.076 87.4906 367.376 87.6026 367.728C87.7226 368.08 87.7826 368.476 87.7826 368.916C87.7826 369.044 87.7466 369.14 87.6746 369.204C87.6026 369.26 87.4986 369.288 87.3626 369.288H83.1866V368.652H87.1346L86.9426 368.808C86.9426 368.376 86.8786 368.012 86.7506 367.716C86.6226 367.412 86.4346 367.18 86.1866 367.02C85.9466 366.86 85.6426 366.78 85.2746 366.78C84.8666 366.78 84.5186 366.876 84.2306 367.068C83.9506 367.252 83.7386 367.512 83.5946 367.848C83.4506 368.176 83.3786 368.56 83.3786 369V369.072C83.3786 369.808 83.5546 370.368 83.9066 370.752C84.2666 371.136 84.7746 371.328 85.4306 371.328C85.7026 371.328 85.9706 371.292 86.2346 371.22C86.5066 371.148 86.7706 371.028 87.0266 370.86C87.1386 370.788 87.2386 370.756 87.3266 370.764C87.4226 370.764 87.4986 370.792 87.5546 370.848C87.6106 370.896 87.6466 370.96 87.6626 371.04C87.6866 371.112 87.6786 371.192 87.6386 371.28C87.6066 371.368 87.5386 371.444 87.4346 371.508C87.1706 371.7 86.8586 371.848 86.4986 371.952C86.1386 372.056 85.7826 372.108 85.4306 372.108ZM89.6693 372.084C89.5093 372.084 89.3893 372.04 89.3093 371.952C89.2293 371.864 89.1893 371.74 89.1893 371.58V363.948C89.1893 363.788 89.2293 363.668 89.3093 363.588C89.3893 363.5 89.5093 363.456 89.6693 363.456C89.8213 363.456 89.9413 363.5 90.0293 363.588C90.1173 363.668 90.1613 363.788 90.1613 363.948V368.76H90.1853L92.6453 366.408C92.7573 366.304 92.8533 366.224 92.9333 366.168C93.0213 366.112 93.1373 366.084 93.2813 366.084C93.4093 366.084 93.5093 366.12 93.5813 366.192C93.6533 366.256 93.6853 366.34 93.6773 366.444C93.6773 366.54 93.6293 366.644 93.5333 366.756L90.9173 369.24V368.712L93.7613 371.388C93.8733 371.5 93.9293 371.608 93.9293 371.712C93.9293 371.816 93.8893 371.904 93.8093 371.976C93.7373 372.048 93.6413 372.084 93.5213 372.084C93.3773 372.084 93.2613 372.056 93.1733 372C93.0853 371.936 92.9773 371.844 92.8493 371.724L90.1853 369.264H90.1613V371.58C90.1613 371.916 89.9973 372.084 89.6693 372.084ZM99.2311 372C99.0871 372 98.9751 371.964 98.8951 371.892C98.8151 371.812 98.7751 371.704 98.7751 371.568C98.7751 371.432 98.8151 371.332 98.8951 371.268C98.9751 371.196 99.0871 371.16 99.2311 371.16H100.791V364.356H101.307L99.5671 365.508C99.4631 365.564 99.3631 365.588 99.2671 365.58C99.1791 365.572 99.1031 365.54 99.0391 365.484C98.9831 365.42 98.9431 365.348 98.9191 365.268C98.8951 365.18 98.8991 365.092 98.9311 365.004C98.9631 364.908 99.0311 364.828 99.1351 364.764L100.791 363.672C100.895 363.608 100.995 363.556 101.091 363.516C101.187 363.476 101.283 363.456 101.379 363.456C101.491 363.456 101.583 363.492 101.655 363.564C101.735 363.628 101.775 363.732 101.775 363.876V371.16H103.215C103.359 371.16 103.471 371.196 103.551 371.268C103.631 371.332 103.671 371.432 103.671 371.568C103.671 371.712 103.631 371.82 103.551 371.892C103.471 371.964 103.359 372 103.215 372H99.2311Z" fill="black"/>
<path opacity="0.7" d="M131.756 372.084C131.612 372.084 131.496 372.048 131.408 371.976C131.32 371.896 131.248 371.78 131.192 371.628L128.54 364.056C128.484 363.888 128.496 363.748 128.576 363.636C128.664 363.516 128.8 363.456 128.984 363.456C129.12 363.456 129.228 363.492 129.308 363.564C129.388 363.628 129.456 363.732 129.512 363.876L131.996 371.16H131.576L134.108 363.912C134.164 363.76 134.232 363.648 134.312 363.576C134.392 363.496 134.5 363.456 134.636 363.456C134.764 363.456 134.864 363.496 134.936 363.576C135.016 363.648 135.084 363.76 135.14 363.912L137.636 371.16H137.264L139.772 363.876C139.812 363.74 139.872 363.636 139.952 363.564C140.04 363.492 140.152 363.456 140.288 363.456C140.456 363.456 140.58 363.512 140.66 363.624C140.74 363.736 140.748 363.88 140.684 364.056L138.02 371.628C137.964 371.78 137.892 371.896 137.804 371.976C137.724 372.048 137.608 372.084 137.456 372.084C137.312 372.084 137.196 372.048 137.108 371.976C137.028 371.896 136.956 371.78 136.892 371.628L134.48 364.68H134.744L132.308 371.628C132.252 371.78 132.184 371.896 132.104 371.976C132.024 372.048 131.908 372.084 131.756 372.084ZM144.044 372.108C143.428 372.108 142.896 371.988 142.448 371.748C142.008 371.5 141.664 371.152 141.416 370.704C141.176 370.256 141.056 369.72 141.056 369.096C141.056 368.488 141.176 367.96 141.416 367.512C141.656 367.056 141.984 366.7 142.4 366.444C142.824 366.188 143.312 366.06 143.864 366.06C144.256 366.06 144.608 366.128 144.92 366.264C145.232 366.392 145.496 366.58 145.712 366.828C145.936 367.076 146.104 367.376 146.216 367.728C146.336 368.08 146.396 368.476 146.396 368.916C146.396 369.044 146.36 369.14 146.288 369.204C146.216 369.26 146.112 369.288 145.976 369.288H141.8V368.652H145.748L145.556 368.808C145.556 368.376 145.492 368.012 145.364 367.716C145.236 367.412 145.048 367.18 144.8 367.02C144.56 366.86 144.256 366.78 143.888 366.78C143.48 366.78 143.132 366.876 142.844 367.068C142.564 367.252 142.352 367.512 142.208 367.848C142.064 368.176 141.992 368.56 141.992 369V369.072C141.992 369.808 142.168 370.368 142.52 370.752C142.88 371.136 143.388 371.328 144.044 371.328C144.316 371.328 144.584 371.292 144.848 371.22C145.12 371.148 145.384 371.028 145.64 370.86C145.752 370.788 145.852 370.756 145.94 370.764C146.036 370.764 146.112 370.792 146.168 370.848C146.224 370.896 146.26 370.96 146.276 371.04C146.3 371.112 146.292 371.192 146.252 371.28C146.22 371.368 146.152 371.444 146.048 371.508C145.784 371.7 145.472 371.848 145.112 371.952C144.752 372.056 144.396 372.108 144.044 372.108ZM150.431 372.108C149.815 372.108 149.283 371.988 148.835 371.748C148.395 371.5 148.051 371.152 147.803 370.704C147.563 370.256 147.443 369.72 147.443 369.096C147.443 368.488 147.563 367.96 147.803 367.512C148.043 367.056 148.371 366.7 148.787 366.444C149.211 366.188 149.699 366.06 150.251 366.06C150.643 366.06 150.995 366.128 151.307 366.264C151.619 366.392 151.883 366.58 152.099 366.828C152.323 367.076 152.491 367.376 152.603 367.728C152.723 368.08 152.783 368.476 152.783 368.916C152.783 369.044 152.747 369.14 152.675 369.204C152.603 369.26 152.499 369.288 152.363 369.288H148.187V368.652H152.135L151.943 368.808C151.943 368.376 151.879 368.012 151.751 367.716C151.623 367.412 151.435 367.18 151.187 367.02C150.947 366.86 150.643 366.78 150.275 366.78C149.867 366.78 149.519 366.876 149.231 367.068C148.951 367.252 148.739 367.512 148.595 367.848C148.451 368.176 148.379 368.56 148.379 369V369.072C148.379 369.808 148.555 370.368 148.907 370.752C149.267 371.136 149.775 371.328 150.431 371.328C150.703 371.328 150.971 371.292 151.235 371.22C151.507 371.148 151.771 371.028 152.027 370.86C152.139 370.788 152.239 370.756 152.327 370.764C152.423 370.764 152.499 370.792 152.555 370.848C152.611 370.896 152.647 370.96 152.663 371.04C152.687 371.112 152.679 371.192 152.639 371.28C152.607 371.368 152.539 371.444 152.435 371.508C152.171 371.7 151.859 371.848 151.499 371.952C151.139 372.056 150.783 372.108 150.431 372.108ZM154.669 372.084C154.509 372.084 154.389 372.04 154.309 371.952C154.229 371.864 154.189 371.74 154.189 371.58V363.948C154.189 363.788 154.229 363.668 154.309 363.588C154.389 363.5 154.509 363.456 154.669 363.456C154.821 363.456 154.941 363.5 155.029 363.588C155.117 363.668 155.161 363.788 155.161 363.948V368.76H155.185L157.645 366.408C157.757 366.304 157.853 366.224 157.933 366.168C158.021 366.112 158.137 366.084 158.281 366.084C158.409 366.084 158.509 366.12 158.581 366.192C158.653 366.256 158.685 366.34 158.677 366.444C158.677 366.54 158.629 366.644 158.533 366.756L155.917 369.24V368.712L158.761 371.388C158.873 371.5 158.929 371.608 158.929 371.712C158.929 371.816 158.889 371.904 158.809 371.976C158.737 372.048 158.641 372.084 158.521 372.084C158.377 372.084 158.261 372.056 158.173 372C158.085 371.936 157.977 371.844 157.849 371.724L155.185 369.264H155.161V371.58C155.161 371.916 154.997 372.084 154.669 372.084ZM163.919 372C163.743 372 163.611 371.96 163.523 371.88C163.443 371.792 163.403 371.676 163.403 371.532C163.403 371.444 163.423 371.36 163.463 371.28C163.511 371.192 163.575 371.104 163.655 371.016L166.343 368.136C166.751 367.696 167.043 367.292 167.219 366.924C167.403 366.548 167.495 366.168 167.495 365.784C167.495 365.304 167.347 364.94 167.051 364.692C166.763 364.436 166.339 364.308 165.779 364.308C165.419 364.308 165.079 364.364 164.759 364.476C164.439 364.588 164.131 364.76 163.835 364.992C163.731 365.072 163.635 365.108 163.547 365.1C163.467 365.092 163.395 365.06 163.331 365.004C163.267 364.948 163.223 364.876 163.199 364.788C163.175 364.7 163.175 364.612 163.199 364.524C163.231 364.436 163.295 364.356 163.391 364.284C163.703 364.028 164.079 363.824 164.519 363.672C164.959 363.512 165.407 363.432 165.863 363.432C166.431 363.432 166.911 363.52 167.303 363.696C167.695 363.872 167.991 364.132 168.191 364.476C168.391 364.812 168.491 365.224 168.491 365.712C168.491 366.048 168.435 366.38 168.323 366.708C168.219 367.028 168.055 367.356 167.831 367.692C167.615 368.028 167.331 368.376 166.979 368.736L164.423 371.436V371.16H168.467C168.619 371.16 168.731 371.196 168.803 371.268C168.883 371.332 168.923 371.432 168.923 371.568C168.923 371.712 168.883 371.82 168.803 371.892C168.731 371.964 168.619 372 168.467 372H163.919Z" fill="black"/>
<path opacity="0.7" d="M192.756 372.084C192.612 372.084 192.496 372.048 192.408 371.976C192.32 371.896 192.248 371.78 192.192 371.628L189.54 364.056C189.484 363.888 189.496 363.748 189.576 363.636C189.664 363.516 189.8 363.456 189.984 363.456C190.12 363.456 190.228 363.492 190.308 363.564C190.388 363.628 190.456 363.732 190.512 363.876L192.996 371.16H192.576L195.108 363.912C195.164 363.76 195.232 363.648 195.312 363.576C195.392 363.496 195.5 363.456 195.636 363.456C195.764 363.456 195.864 363.496 195.936 363.576C196.016 363.648 196.084 363.76 196.14 363.912L198.636 371.16H198.264L200.772 363.876C200.812 363.74 200.872 363.636 200.952 363.564C201.04 363.492 201.152 363.456 201.288 363.456C201.456 363.456 201.58 363.512 201.66 363.624C201.74 363.736 201.748 363.88 201.684 364.056L199.02 371.628C198.964 371.78 198.892 371.896 198.804 371.976C198.724 372.048 198.608 372.084 198.456 372.084C198.312 372.084 198.196 372.048 198.108 371.976C198.028 371.896 197.956 371.78 197.892 371.628L195.48 364.68H195.744L193.308 371.628C193.252 371.78 193.184 371.896 193.104 371.976C193.024 372.048 192.908 372.084 192.756 372.084ZM205.044 372.108C204.428 372.108 203.896 371.988 203.448 371.748C203.008 371.5 202.664 371.152 202.416 370.704C202.176 370.256 202.056 369.72 202.056 369.096C202.056 368.488 202.176 367.96 202.416 367.512C202.656 367.056 202.984 366.7 203.4 366.444C203.824 366.188 204.312 366.06 204.864 366.06C205.256 366.06 205.608 366.128 205.92 366.264C206.232 366.392 206.496 366.58 206.712 366.828C206.936 367.076 207.104 367.376 207.216 367.728C207.336 368.08 207.396 368.476 207.396 368.916C207.396 369.044 207.36 369.14 207.288 369.204C207.216 369.26 207.112 369.288 206.976 369.288H202.8V368.652H206.748L206.556 368.808C206.556 368.376 206.492 368.012 206.364 367.716C206.236 367.412 206.048 367.18 205.8 367.02C205.56 366.86 205.256 366.78 204.888 366.78C204.48 366.78 204.132 366.876 203.844 367.068C203.564 367.252 203.352 367.512 203.208 367.848C203.064 368.176 202.992 368.56 202.992 369V369.072C202.992 369.808 203.168 370.368 203.52 370.752C203.88 371.136 204.388 371.328 205.044 371.328C205.316 371.328 205.584 371.292 205.848 371.22C206.12 371.148 206.384 371.028 206.64 370.86C206.752 370.788 206.852 370.756 206.94 370.764C207.036 370.764 207.112 370.792 207.168 370.848C207.224 370.896 207.26 370.96 207.276 371.04C207.3 371.112 207.292 371.192 207.252 371.28C207.22 371.368 207.152 371.444 207.048 371.508C206.784 371.7 206.472 371.848 206.112 371.952C205.752 372.056 205.396 372.108 205.044 372.108ZM211.431 372.108C210.815 372.108 210.283 371.988 209.835 371.748C209.395 371.5 209.051 371.152 208.803 370.704C208.563 370.256 208.443 369.72 208.443 369.096C208.443 368.488 208.563 367.96 208.803 367.512C209.043 367.056 209.371 366.7 209.787 366.444C210.211 366.188 210.699 366.06 211.251 366.06C211.643 366.06 211.995 366.128 212.307 366.264C212.619 366.392 212.883 366.58 213.099 366.828C213.323 367.076 213.491 367.376 213.603 367.728C213.723 368.08 213.783 368.476 213.783 368.916C213.783 369.044 213.747 369.14 213.675 369.204C213.603 369.26 213.499 369.288 213.363 369.288H209.187V368.652H213.135L212.943 368.808C212.943 368.376 212.879 368.012 212.751 367.716C212.623 367.412 212.435 367.18 212.187 367.02C211.947 366.86 211.643 366.78 211.275 366.78C210.867 366.78 210.519 366.876 210.231 367.068C209.951 367.252 209.739 367.512 209.595 367.848C209.451 368.176 209.379 368.56 209.379 369V369.072C209.379 369.808 209.555 370.368 209.907 370.752C210.267 371.136 210.775 371.328 211.431 371.328C211.703 371.328 211.971 371.292 212.235 371.22C212.507 371.148 212.771 371.028 213.027 370.86C213.139 370.788 213.239 370.756 213.327 370.764C213.423 370.764 213.499 370.792 213.555 370.848C213.611 370.896 213.647 370.96 213.663 371.04C213.687 371.112 213.679 371.192 213.639 371.28C213.607 371.368 213.539 371.444 213.435 371.508C213.171 371.7 212.859 371.848 212.499 371.952C212.139 372.056 211.783 372.108 211.431 372.108ZM215.669 372.084C215.509 372.084 215.389 372.04 215.309 371.952C215.229 371.864 215.189 371.74 215.189 371.58V363.948C215.189 363.788 215.229 363.668 215.309 363.588C215.389 363.5 215.509 363.456 215.669 363.456C215.821 363.456 215.941 363.5 216.029 363.588C216.117 363.668 216.161 363.788 216.161 363.948V368.76H216.185L218.645 366.408C218.757 366.304 218.853 366.224 218.933 366.168C219.021 366.112 219.137 366.084 219.281 366.084C219.409 366.084 219.509 366.12 219.581 366.192C219.653 366.256 219.685 366.34 219.677 366.444C219.677 366.54 219.629 366.644 219.533 366.756L216.917 369.24V368.712L219.761 371.388C219.873 371.5 219.929 371.608 219.929 371.712C219.929 371.816 219.889 371.904 219.809 371.976C219.737 372.048 219.641 372.084 219.521 372.084C219.377 372.084 219.261 372.056 219.173 372C219.085 371.936 218.977 371.844 218.849 371.724L216.185 369.264H216.161V371.58C216.161 371.916 215.997 372.084 215.669 372.084ZM226.875 372.108C226.411 372.108 225.943 372.04 225.471 371.904C225.007 371.768 224.603 371.568 224.259 371.304C224.155 371.232 224.087 371.152 224.055 371.064C224.023 370.968 224.015 370.88 224.031 370.8C224.055 370.712 224.099 370.64 224.163 370.584C224.227 370.52 224.303 370.484 224.391 370.476C224.487 370.468 224.591 370.5 224.703 370.572C225.055 370.804 225.407 370.972 225.759 371.076C226.111 371.18 226.475 371.232 226.851 371.232C227.259 371.232 227.603 371.172 227.883 371.052C228.163 370.932 228.375 370.756 228.519 370.524C228.663 370.284 228.735 369.992 228.735 369.648C228.735 369.152 228.571 368.776 228.243 368.52C227.915 368.264 227.439 368.136 226.815 368.136H225.963C225.811 368.136 225.695 368.1 225.615 368.028C225.535 367.948 225.495 367.84 225.495 367.704C225.495 367.576 225.535 367.476 225.615 367.404C225.695 367.324 225.811 367.284 225.963 367.284H226.731C227.099 367.284 227.411 367.22 227.667 367.092C227.931 366.964 228.135 366.784 228.279 366.552C228.423 366.312 228.495 366.024 228.495 365.688C228.495 365.24 228.351 364.9 228.063 364.668C227.775 364.428 227.359 364.308 226.815 364.308C226.455 364.308 226.115 364.36 225.795 364.464C225.475 364.568 225.159 364.744 224.847 364.992C224.751 365.064 224.655 365.1 224.559 365.1C224.471 365.092 224.395 365.064 224.331 365.016C224.275 364.96 224.231 364.888 224.199 364.8C224.175 364.712 224.179 364.624 224.211 364.536C224.243 364.44 224.311 364.352 224.415 364.272C224.735 364 225.111 363.792 225.543 363.648C225.975 363.504 226.419 363.432 226.875 363.432C227.419 363.432 227.883 363.52 228.267 363.696C228.659 363.864 228.959 364.112 229.167 364.44C229.375 364.76 229.479 365.148 229.479 365.604C229.479 365.948 229.411 366.264 229.275 366.552C229.147 366.832 228.963 367.072 228.723 367.272C228.491 367.472 228.207 367.616 227.871 367.704V367.572C228.455 367.668 228.907 367.908 229.227 368.292C229.555 368.668 229.719 369.144 229.719 369.72C229.719 370.208 229.603 370.632 229.371 370.992C229.147 371.344 228.823 371.62 228.399 371.82C227.975 372.012 227.467 372.108 226.875 372.108Z" fill="black"/>
<path opacity="0.7" d="M255.756 372.084C255.612 372.084 255.496 372.048 255.408 371.976C255.32 371.896 255.248 371.78 255.192 371.628L252.54 364.056C252.484 363.888 252.496 363.748 252.576 363.636C252.664 363.516 252.8 363.456 252.984 363.456C253.12 363.456 253.228 363.492 253.308 363.564C253.388 363.628 253.456 363.732 253.512 363.876L255.996 371.16H255.576L258.108 363.912C258.164 363.76 258.232 363.648 258.312 363.576C258.392 363.496 258.5 363.456 258.636 363.456C258.764 363.456 258.864 363.496 258.936 363.576C259.016 363.648 259.084 363.76 259.14 363.912L261.636 371.16H261.264L263.772 363.876C263.812 363.74 263.872 363.636 263.952 363.564C264.04 363.492 264.152 363.456 264.288 363.456C264.456 363.456 264.58 363.512 264.66 363.624C264.74 363.736 264.748 363.88 264.684 364.056L262.02 371.628C261.964 371.78 261.892 371.896 261.804 371.976C261.724 372.048 261.608 372.084 261.456 372.084C261.312 372.084 261.196 372.048 261.108 371.976C261.028 371.896 260.956 371.78 260.892 371.628L258.48 364.68H258.744L256.308 371.628C256.252 371.78 256.184 371.896 256.104 371.976C256.024 372.048 255.908 372.084 255.756 372.084ZM268.044 372.108C267.428 372.108 266.896 371.988 266.448 371.748C266.008 371.5 265.664 371.152 265.416 370.704C265.176 370.256 265.056 369.72 265.056 369.096C265.056 368.488 265.176 367.96 265.416 367.512C265.656 367.056 265.984 366.7 266.4 366.444C266.824 366.188 267.312 366.06 267.864 366.06C268.256 366.06 268.608 366.128 268.92 366.264C269.232 366.392 269.496 366.58 269.712 366.828C269.936 367.076 270.104 367.376 270.216 367.728C270.336 368.08 270.396 368.476 270.396 368.916C270.396 369.044 270.36 369.14 270.288 369.204C270.216 369.26 270.112 369.288 269.976 369.288H265.8V368.652H269.748L269.556 368.808C269.556 368.376 269.492 368.012 269.364 367.716C269.236 367.412 269.048 367.18 268.8 367.02C268.56 366.86 268.256 366.78 267.888 366.78C267.48 366.78 267.132 366.876 266.844 367.068C266.564 367.252 266.352 367.512 266.208 367.848C266.064 368.176 265.992 368.56 265.992 369V369.072C265.992 369.808 266.168 370.368 266.52 370.752C266.88 371.136 267.388 371.328 268.044 371.328C268.316 371.328 268.584 371.292 268.848 371.22C269.12 371.148 269.384 371.028 269.64 370.86C269.752 370.788 269.852 370.756 269.94 370.764C270.036 370.764 270.112 370.792 270.168 370.848C270.224 370.896 270.26 370.96 270.276 371.04C270.3 371.112 270.292 371.192 270.252 371.28C270.22 371.368 270.152 371.444 270.048 371.508C269.784 371.7 269.472 371.848 269.112 371.952C268.752 372.056 268.396 372.108 268.044 372.108ZM274.431 372.108C273.815 372.108 273.283 371.988 272.835 371.748C272.395 371.5 272.051 371.152 271.803 370.704C271.563 370.256 271.443 369.72 271.443 369.096C271.443 368.488 271.563 367.96 271.803 367.512C272.043 367.056 272.371 366.7 272.787 366.444C273.211 366.188 273.699 366.06 274.251 366.06C274.643 366.06 274.995 366.128 275.307 366.264C275.619 366.392 275.883 366.58 276.099 366.828C276.323 367.076 276.491 367.376 276.603 367.728C276.723 368.08 276.783 368.476 276.783 368.916C276.783 369.044 276.747 369.14 276.675 369.204C276.603 369.26 276.499 369.288 276.363 369.288H272.187V368.652H276.135L275.943 368.808C275.943 368.376 275.879 368.012 275.751 367.716C275.623 367.412 275.435 367.18 275.187 367.02C274.947 366.86 274.643 366.78 274.275 366.78C273.867 366.78 273.519 366.876 273.231 367.068C272.951 367.252 272.739 367.512 272.595 367.848C272.451 368.176 272.379 368.56 272.379 369V369.072C272.379 369.808 272.555 370.368 272.907 370.752C273.267 371.136 273.775 371.328 274.431 371.328C274.703 371.328 274.971 371.292 275.235 371.22C275.507 371.148 275.771 371.028 276.027 370.86C276.139 370.788 276.239 370.756 276.327 370.764C276.423 370.764 276.499 370.792 276.555 370.848C276.611 370.896 276.647 370.96 276.663 371.04C276.687 371.112 276.679 371.192 276.639 371.28C276.607 371.368 276.539 371.444 276.435 371.508C276.171 371.7 275.859 371.848 275.499 371.952C275.139 372.056 274.783 372.108 274.431 372.108ZM278.669 372.084C278.509 372.084 278.389 372.04 278.309 371.952C278.229 371.864 278.189 371.74 278.189 371.58V363.948C278.189 363.788 278.229 363.668 278.309 363.588C278.389 363.5 278.509 363.456 278.669 363.456C278.821 363.456 278.941 363.5 279.029 363.588C279.117 363.668 279.161 363.788 279.161 363.948V368.76H279.185L281.645 366.408C281.757 366.304 281.853 366.224 281.933 366.168C282.021 366.112 282.137 366.084 282.281 366.084C282.409 366.084 282.509 366.12 282.581 366.192C282.653 366.256 282.685 366.34 282.677 366.444C282.677 366.54 282.629 366.644 282.533 366.756L279.917 369.24V368.712L282.761 371.388C282.873 371.5 282.929 371.608 282.929 371.712C282.929 371.816 282.889 371.904 282.809 371.976C282.737 372.048 282.641 372.084 282.521 372.084C282.377 372.084 282.261 372.056 282.173 372C282.085 371.936 281.977 371.844 281.849 371.724L279.185 369.264H279.161V371.58C279.161 371.916 278.997 372.084 278.669 372.084ZM291.387 372.084C291.235 372.084 291.115 372.04 291.027 371.952C290.939 371.864 290.895 371.74 290.895 371.58V370.188H287.451C287.291 370.188 287.163 370.152 287.067 370.08C286.979 370 286.935 369.888 286.935 369.744C286.935 369.656 286.955 369.568 286.995 369.48C287.035 369.384 287.107 369.264 287.211 369.12L290.871 363.792C290.943 363.68 291.023 363.596 291.111 363.54C291.199 363.484 291.303 363.456 291.423 363.456C291.551 363.456 291.659 363.496 291.747 363.576C291.843 363.656 291.891 363.784 291.891 363.96V369.348H292.767C292.919 369.348 293.035 369.384 293.115 369.456C293.195 369.528 293.235 369.632 293.235 369.768C293.235 369.904 293.195 370.008 293.115 370.08C293.035 370.152 292.919 370.188 292.767 370.188H291.891V371.58C291.891 371.74 291.847 371.864 291.759 371.952C291.671 372.04 291.547 372.084 291.387 372.084ZM290.895 369.348V364.692H291.183L287.823 369.612V369.348H290.895Z" fill="black"/>
<path opacity="0.7" d="M320.756 372.084C320.612 372.084 320.496 372.048 320.408 371.976C320.32 371.896 320.248 371.78 320.192 371.628L317.54 364.056C317.484 363.888 317.496 363.748 317.576 363.636C317.664 363.516 317.8 363.456 317.984 363.456C318.12 363.456 318.228 363.492 318.308 363.564C318.388 363.628 318.456 363.732 318.512 363.876L320.996 371.16H320.576L323.108 363.912C323.164 363.76 323.232 363.648 323.312 363.576C323.392 363.496 323.5 363.456 323.636 363.456C323.764 363.456 323.864 363.496 323.936 363.576C324.016 363.648 324.084 363.76 324.14 363.912L326.636 371.16H326.264L328.772 363.876C328.812 363.74 328.872 363.636 328.952 363.564C329.04 363.492 329.152 363.456 329.288 363.456C329.456 363.456 329.58 363.512 329.66 363.624C329.74 363.736 329.748 363.88 329.684 364.056L327.02 371.628C326.964 371.78 326.892 371.896 326.804 371.976C326.724 372.048 326.608 372.084 326.456 372.084C326.312 372.084 326.196 372.048 326.108 371.976C326.028 371.896 325.956 371.78 325.892 371.628L323.48 364.68H323.744L321.308 371.628C321.252 371.78 321.184 371.896 321.104 371.976C321.024 372.048 320.908 372.084 320.756 372.084ZM333.044 372.108C332.428 372.108 331.896 371.988 331.448 371.748C331.008 371.5 330.664 371.152 330.416 370.704C330.176 370.256 330.056 369.72 330.056 369.096C330.056 368.488 330.176 367.96 330.416 367.512C330.656 367.056 330.984 366.7 331.4 366.444C331.824 366.188 332.312 366.06 332.864 366.06C333.256 366.06 333.608 366.128 333.92 366.264C334.232 366.392 334.496 366.58 334.712 366.828C334.936 367.076 335.104 367.376 335.216 367.728C335.336 368.08 335.396 368.476 335.396 368.916C335.396 369.044 335.36 369.14 335.288 369.204C335.216 369.26 335.112 369.288 334.976 369.288H330.8V368.652H334.748L334.556 368.808C334.556 368.376 334.492 368.012 334.364 367.716C334.236 367.412 334.048 367.18 333.8 367.02C333.56 366.86 333.256 366.78 332.888 366.78C332.48 366.78 332.132 366.876 331.844 367.068C331.564 367.252 331.352 367.512 331.208 367.848C331.064 368.176 330.992 368.56 330.992 369V369.072C330.992 369.808 331.168 370.368 331.52 370.752C331.88 371.136 332.388 371.328 333.044 371.328C333.316 371.328 333.584 371.292 333.848 371.22C334.12 371.148 334.384 371.028 334.64 370.86C334.752 370.788 334.852 370.756 334.94 370.764C335.036 370.764 335.112 370.792 335.168 370.848C335.224 370.896 335.26 370.96 335.276 371.04C335.3 371.112 335.292 371.192 335.252 371.28C335.22 371.368 335.152 371.444 335.048 371.508C334.784 371.7 334.472 371.848 334.112 371.952C333.752 372.056 333.396 372.108 333.044 372.108ZM339.431 372.108C338.815 372.108 338.283 371.988 337.835 371.748C337.395 371.5 337.051 371.152 336.803 370.704C336.563 370.256 336.443 369.72 336.443 369.096C336.443 368.488 336.563 367.96 336.803 367.512C337.043 367.056 337.371 366.7 337.787 366.444C338.211 366.188 338.699 366.06 339.251 366.06C339.643 366.06 339.995 366.128 340.307 366.264C340.619 366.392 340.883 366.58 341.099 366.828C341.323 367.076 341.491 367.376 341.603 367.728C341.723 368.08 341.783 368.476 341.783 368.916C341.783 369.044 341.747 369.14 341.675 369.204C341.603 369.26 341.499 369.288 341.363 369.288H337.187V368.652H341.135L340.943 368.808C340.943 368.376 340.879 368.012 340.751 367.716C340.623 367.412 340.435 367.18 340.187 367.02C339.947 366.86 339.643 366.78 339.275 366.78C338.867 366.78 338.519 366.876 338.231 367.068C337.951 367.252 337.739 367.512 337.595 367.848C337.451 368.176 337.379 368.56 337.379 369V369.072C337.379 369.808 337.555 370.368 337.907 370.752C338.267 371.136 338.775 371.328 339.431 371.328C339.703 371.328 339.971 371.292 340.235 371.22C340.507 371.148 340.771 371.028 341.027 370.86C341.139 370.788 341.239 370.756 341.327 370.764C341.423 370.764 341.499 370.792 341.555 370.848C341.611 370.896 341.647 370.96 341.663 371.04C341.687 371.112 341.679 371.192 341.639 371.28C341.607 371.368 341.539 371.444 341.435 371.508C341.171 371.7 340.859 371.848 340.499 371.952C340.139 372.056 339.783 372.108 339.431 372.108ZM343.669 372.084C343.509 372.084 343.389 372.04 343.309 371.952C343.229 371.864 343.189 371.74 343.189 371.58V363.948C343.189 363.788 343.229 363.668 343.309 363.588C343.389 363.5 343.509 363.456 343.669 363.456C343.821 363.456 343.941 363.5 344.029 363.588C344.117 363.668 344.161 363.788 344.161 363.948V368.76H344.185L346.645 366.408C346.757 366.304 346.853 366.224 346.933 366.168C347.021 366.112 347.137 366.084 347.281 366.084C347.409 366.084 347.509 366.12 347.581 366.192C347.653 366.256 347.685 366.34 347.677 366.444C347.677 366.54 347.629 366.644 347.533 366.756L344.917 369.24V368.712L347.761 371.388C347.873 371.5 347.929 371.608 347.929 371.712C347.929 371.816 347.889 371.904 347.809 371.976C347.737 372.048 347.641 372.084 347.521 372.084C347.377 372.084 347.261 372.056 347.173 372C347.085 371.936 346.977 371.844 346.849 371.724L344.185 369.264H344.161V371.58C344.161 371.916 343.997 372.084 343.669 372.084ZM355.151 372.108C354.695 372.108 354.239 372.04 353.783 371.904C353.335 371.768 352.927 371.556 352.559 371.268C352.463 371.204 352.399 371.128 352.367 371.04C352.335 370.952 352.331 370.864 352.355 370.776C352.379 370.688 352.423 370.616 352.487 370.56C352.551 370.496 352.627 370.46 352.715 370.452C352.811 370.444 352.911 370.476 353.015 370.548C353.343 370.78 353.683 370.952 354.035 371.064C354.387 371.176 354.755 371.232 355.139 371.232C355.531 371.232 355.867 371.16 356.147 371.016C356.435 370.864 356.651 370.656 356.795 370.392C356.947 370.12 357.023 369.804 357.023 369.444C357.023 368.892 356.863 368.44 356.543 368.088C356.223 367.736 355.783 367.56 355.223 367.56C354.879 367.56 354.563 367.624 354.275 367.752C353.987 367.88 353.723 368.084 353.483 368.364C353.427 368.428 353.359 368.484 353.279 368.532C353.207 368.572 353.123 368.592 353.027 368.592C352.891 368.592 352.783 368.556 352.703 368.484C352.631 368.404 352.595 368.3 352.595 368.172V363.996C352.595 363.844 352.635 363.732 352.715 363.66C352.795 363.58 352.907 363.54 353.051 363.54H357.131C357.283 363.54 357.395 363.576 357.467 363.648C357.547 363.72 357.587 363.824 357.587 363.96C357.587 364.096 357.547 364.2 357.467 364.272C357.395 364.344 357.283 364.38 357.131 364.38H353.567V367.752H353.303C353.511 367.416 353.799 367.16 354.167 366.984C354.535 366.8 354.947 366.708 355.403 366.708C355.939 366.708 356.399 366.82 356.783 367.044C357.175 367.268 357.475 367.584 357.683 367.992C357.899 368.392 358.007 368.86 358.007 369.396C358.007 369.924 357.891 370.392 357.659 370.8C357.427 371.208 357.099 371.528 356.675 371.76C356.251 371.992 355.743 372.108 355.151 372.108Z" fill="black"/>
<path opacity="0.7" d="M386.756 372.084C386.612 372.084 386.496 372.048 386.408 371.976C386.32 371.896 386.248 371.78 386.192 371.628L383.54 364.056C383.484 363.888 383.496 363.748 383.576 363.636C383.664 363.516 383.8 363.456 383.984 363.456C384.12 363.456 384.228 363.492 384.308 363.564C384.388 363.628 384.456 363.732 384.512 363.876L386.996 371.16H386.576L389.108 363.912C389.164 363.76 389.232 363.648 389.312 363.576C389.392 363.496 389.5 363.456 389.636 363.456C389.764 363.456 389.864 363.496 389.936 363.576C390.016 363.648 390.084 363.76 390.14 363.912L392.636 371.16H392.264L394.772 363.876C394.812 363.74 394.872 363.636 394.952 363.564C395.04 363.492 395.152 363.456 395.288 363.456C395.456 363.456 395.58 363.512 395.66 363.624C395.74 363.736 395.748 363.88 395.684 364.056L393.02 371.628C392.964 371.78 392.892 371.896 392.804 371.976C392.724 372.048 392.608 372.084 392.456 372.084C392.312 372.084 392.196 372.048 392.108 371.976C392.028 371.896 391.956 371.78 391.892 371.628L389.48 364.68H389.744L387.308 371.628C387.252 371.78 387.184 371.896 387.104 371.976C387.024 372.048 386.908 372.084 386.756 372.084ZM399.044 372.108C398.428 372.108 397.896 371.988 397.448 371.748C397.008 371.5 396.664 371.152 396.416 370.704C396.176 370.256 396.056 369.72 396.056 369.096C396.056 368.488 396.176 367.96 396.416 367.512C396.656 367.056 396.984 366.7 397.4 366.444C397.824 366.188 398.312 366.06 398.864 366.06C399.256 366.06 399.608 366.128 399.92 366.264C400.232 366.392 400.496 366.58 400.712 366.828C400.936 367.076 401.104 367.376 401.216 367.728C401.336 368.08 401.396 368.476 401.396 368.916C401.396 369.044 401.36 369.14 401.288 369.204C401.216 369.26 401.112 369.288 400.976 369.288H396.8V368.652H400.748L400.556 368.808C400.556 368.376 400.492 368.012 400.364 367.716C400.236 367.412 400.048 367.18 399.8 367.02C399.56 366.86 399.256 366.78 398.888 366.78C398.48 366.78 398.132 366.876 397.844 367.068C397.564 367.252 397.352 367.512 397.208 367.848C397.064 368.176 396.992 368.56 396.992 369V369.072C396.992 369.808 397.168 370.368 397.52 370.752C397.88 371.136 398.388 371.328 399.044 371.328C399.316 371.328 399.584 371.292 399.848 371.22C400.12 371.148 400.384 371.028 400.64 370.86C400.752 370.788 400.852 370.756 400.94 370.764C401.036 370.764 401.112 370.792 401.168 370.848C401.224 370.896 401.26 370.96 401.276 371.04C401.3 371.112 401.292 371.192 401.252 371.28C401.22 371.368 401.152 371.444 401.048 371.508C400.784 371.7 400.472 371.848 400.112 371.952C399.752 372.056 399.396 372.108 399.044 372.108ZM405.431 372.108C404.815 372.108 404.283 371.988 403.835 371.748C403.395 371.5 403.051 371.152 402.803 370.704C402.563 370.256 402.443 369.72 402.443 369.096C402.443 368.488 402.563 367.96 402.803 367.512C403.043 367.056 403.371 366.7 403.787 366.444C404.211 366.188 404.699 366.06 405.251 366.06C405.643 366.06 405.995 366.128 406.307 366.264C406.619 366.392 406.883 366.58 407.099 366.828C407.323 367.076 407.491 367.376 407.603 367.728C407.723 368.08 407.783 368.476 407.783 368.916C407.783 369.044 407.747 369.14 407.675 369.204C407.603 369.26 407.499 369.288 407.363 369.288H403.187V368.652H407.135L406.943 368.808C406.943 368.376 406.879 368.012 406.751 367.716C406.623 367.412 406.435 367.18 406.187 367.02C405.947 366.86 405.643 366.78 405.275 366.78C404.867 366.78 404.519 366.876 404.231 367.068C403.951 367.252 403.739 367.512 403.595 367.848C403.451 368.176 403.379 368.56 403.379 369V369.072C403.379 369.808 403.555 370.368 403.907 370.752C404.267 371.136 404.775 371.328 405.431 371.328C405.703 371.328 405.971 371.292 406.235 371.22C406.507 371.148 406.771 371.028 407.027 370.86C407.139 370.788 407.239 370.756 407.327 370.764C407.423 370.764 407.499 370.792 407.555 370.848C407.611 370.896 407.647 370.96 407.663 371.04C407.687 371.112 407.679 371.192 407.639 371.28C407.607 371.368 407.539 371.444 407.435 371.508C407.171 371.7 406.859 371.848 406.499 371.952C406.139 372.056 405.783 372.108 405.431 372.108ZM409.669 372.084C409.509 372.084 409.389 372.04 409.309 371.952C409.229 371.864 409.189 371.74 409.189 371.58V363.948C409.189 363.788 409.229 363.668 409.309 363.588C409.389 363.5 409.509 363.456 409.669 363.456C409.821 363.456 409.941 363.5 410.029 363.588C410.117 363.668 410.161 363.788 410.161 363.948V368.76H410.185L412.645 366.408C412.757 366.304 412.853 366.224 412.933 366.168C413.021 366.112 413.137 366.084 413.281 366.084C413.409 366.084 413.509 366.12 413.581 366.192C413.653 366.256 413.685 366.34 413.677 366.444C413.677 366.54 413.629 366.644 413.533 366.756L410.917 369.24V368.712L413.761 371.388C413.873 371.5 413.929 371.608 413.929 371.712C413.929 371.816 413.889 371.904 413.809 371.976C413.737 372.048 413.641 372.084 413.521 372.084C413.377 372.084 413.261 372.056 413.173 372C413.085 371.936 412.977 371.844 412.849 371.724L410.185 369.264H410.161V371.58C410.161 371.916 409.997 372.084 409.669 372.084ZM421.259 372.108C420.595 372.108 420.027 371.948 419.555 371.628C419.091 371.3 418.739 370.828 418.499 370.212C418.259 369.596 418.139 368.852 418.139 367.98C418.139 367.244 418.215 366.596 418.367 366.036C418.519 365.476 418.743 365.004 419.039 364.62C419.335 364.228 419.695 363.932 420.119 363.732C420.543 363.532 421.023 363.432 421.559 363.432C421.927 363.432 422.303 363.504 422.687 363.648C423.079 363.792 423.423 363.996 423.719 364.26C423.807 364.324 423.859 364.404 423.875 364.5C423.899 364.588 423.899 364.676 423.875 364.764C423.851 364.844 423.807 364.912 423.743 364.968C423.687 365.024 423.615 365.056 423.527 365.064C423.439 365.064 423.347 365.028 423.251 364.956C422.979 364.724 422.699 364.56 422.411 364.464C422.123 364.36 421.831 364.308 421.535 364.308C421.015 364.308 420.571 364.436 420.203 364.692C419.843 364.948 419.567 365.336 419.375 365.856C419.191 366.368 419.099 367.012 419.099 367.788V368.904H418.991C419.039 368.448 419.171 368.056 419.387 367.728C419.611 367.392 419.895 367.136 420.239 366.96C420.583 366.784 420.971 366.696 421.403 366.696C421.899 366.696 422.339 366.808 422.723 367.032C423.107 367.256 423.407 367.572 423.623 367.98C423.839 368.38 423.947 368.84 423.947 369.36C423.947 369.888 423.835 370.36 423.611 370.776C423.387 371.192 423.071 371.52 422.663 371.76C422.255 371.992 421.787 372.108 421.259 372.108ZM421.199 371.268C421.551 371.268 421.863 371.192 422.135 371.04C422.407 370.88 422.619 370.66 422.771 370.38C422.923 370.092 422.999 369.764 422.999 369.396C422.999 369.028 422.923 368.704 422.771 368.424C422.619 368.144 422.407 367.924 422.135 367.764C421.863 367.604 421.551 367.524 421.199 367.524C420.847 367.524 420.535 367.604 420.263 367.764C419.991 367.924 419.779 368.144 419.627 368.424C419.475 368.704 419.399 369.028 419.399 369.396C419.399 369.764 419.475 370.092 419.627 370.38C419.779 370.66 419.991 370.88 420.263 371.04C420.535 371.192 420.847 371.268 421.199 371.268Z" fill="black"/>
<path opacity="0.7" d="M453.756 372.084C453.612 372.084 453.496 372.048 453.408 371.976C453.32 371.896 453.248 371.78 453.192 371.628L450.54 364.056C450.484 363.888 450.496 363.748 450.576 363.636C450.664 363.516 450.8 363.456 450.984 363.456C451.12 363.456 451.228 363.492 451.308 363.564C451.388 363.628 451.456 363.732 451.512 363.876L453.996 371.16H453.576L456.108 363.912C456.164 363.76 456.232 363.648 456.312 363.576C456.392 363.496 456.5 363.456 456.636 363.456C456.764 363.456 456.864 363.496 456.936 363.576C457.016 363.648 457.084 363.76 457.14 363.912L459.636 371.16H459.264L461.772 363.876C461.812 363.74 461.872 363.636 461.952 363.564C462.04 363.492 462.152 363.456 462.288 363.456C462.456 363.456 462.58 363.512 462.66 363.624C462.74 363.736 462.748 363.88 462.684 364.056L460.02 371.628C459.964 371.78 459.892 371.896 459.804 371.976C459.724 372.048 459.608 372.084 459.456 372.084C459.312 372.084 459.196 372.048 459.108 371.976C459.028 371.896 458.956 371.78 458.892 371.628L456.48 364.68H456.744L454.308 371.628C454.252 371.78 454.184 371.896 454.104 371.976C454.024 372.048 453.908 372.084 453.756 372.084ZM466.044 372.108C465.428 372.108 464.896 371.988 464.448 371.748C464.008 371.5 463.664 371.152 463.416 370.704C463.176 370.256 463.056 369.72 463.056 369.096C463.056 368.488 463.176 367.96 463.416 367.512C463.656 367.056 463.984 366.7 464.4 366.444C464.824 366.188 465.312 366.06 465.864 366.06C466.256 366.06 466.608 366.128 466.92 366.264C467.232 366.392 467.496 366.58 467.712 366.828C467.936 367.076 468.104 367.376 468.216 367.728C468.336 368.08 468.396 368.476 468.396 368.916C468.396 369.044 468.36 369.14 468.288 369.204C468.216 369.26 468.112 369.288 467.976 369.288H463.8V368.652H467.748L467.556 368.808C467.556 368.376 467.492 368.012 467.364 367.716C467.236 367.412 467.048 367.18 466.8 367.02C466.56 366.86 466.256 366.78 465.888 366.78C465.48 366.78 465.132 366.876 464.844 367.068C464.564 367.252 464.352 367.512 464.208 367.848C464.064 368.176 463.992 368.56 463.992 369V369.072C463.992 369.808 464.168 370.368 464.52 370.752C464.88 371.136 465.388 371.328 466.044 371.328C466.316 371.328 466.584 371.292 466.848 371.22C467.12 371.148 467.384 371.028 467.64 370.86C467.752 370.788 467.852 370.756 467.94 370.764C468.036 370.764 468.112 370.792 468.168 370.848C468.224 370.896 468.26 370.96 468.276 371.04C468.3 371.112 468.292 371.192 468.252 371.28C468.22 371.368 468.152 371.444 468.048 371.508C467.784 371.7 467.472 371.848 467.112 371.952C466.752 372.056 466.396 372.108 466.044 372.108ZM472.431 372.108C471.815 372.108 471.283 371.988 470.835 371.748C470.395 371.5 470.051 371.152 469.803 370.704C469.563 370.256 469.443 369.72 469.443 369.096C469.443 368.488 469.563 367.96 469.803 367.512C470.043 367.056 470.371 366.7 470.787 366.444C471.211 366.188 471.699 366.06 472.251 366.06C472.643 366.06 472.995 366.128 473.307 366.264C473.619 366.392 473.883 366.58 474.099 366.828C474.323 367.076 474.491 367.376 474.603 367.728C474.723 368.08 474.783 368.476 474.783 368.916C474.783 369.044 474.747 369.14 474.675 369.204C474.603 369.26 474.499 369.288 474.363 369.288H470.187V368.652H474.135L473.943 368.808C473.943 368.376 473.879 368.012 473.751 367.716C473.623 367.412 473.435 367.18 473.187 367.02C472.947 366.86 472.643 366.78 472.275 366.78C471.867 366.78 471.519 366.876 471.231 367.068C470.951 367.252 470.739 367.512 470.595 367.848C470.451 368.176 470.379 368.56 470.379 369V369.072C470.379 369.808 470.555 370.368 470.907 370.752C471.267 371.136 471.775 371.328 472.431 371.328C472.703 371.328 472.971 371.292 473.235 371.22C473.507 371.148 473.771 371.028 474.027 370.86C474.139 370.788 474.239 370.756 474.327 370.764C474.423 370.764 474.499 370.792 474.555 370.848C474.611 370.896 474.647 370.96 474.663 371.04C474.687 371.112 474.679 371.192 474.639 371.28C474.607 371.368 474.539 371.444 474.435 371.508C474.171 371.7 473.859 371.848 473.499 371.952C473.139 372.056 472.783 372.108 472.431 372.108ZM476.669 372.084C476.509 372.084 476.389 372.04 476.309 371.952C476.229 371.864 476.189 371.74 476.189 371.58V363.948C476.189 363.788 476.229 363.668 476.309 363.588C476.389 363.5 476.509 363.456 476.669 363.456C476.821 363.456 476.941 363.5 477.029 363.588C477.117 363.668 477.161 363.788 477.161 363.948V368.76H477.185L479.645 366.408C479.757 366.304 479.853 366.224 479.933 366.168C480.021 366.112 480.137 366.084 480.281 366.084C480.409 366.084 480.509 366.12 480.581 366.192C480.653 366.256 480.685 366.34 480.677 366.444C480.677 366.54 480.629 366.644 480.533 366.756L477.917 369.24V368.712L480.761 371.388C480.873 371.5 480.929 371.608 480.929 371.712C480.929 371.816 480.889 371.904 480.809 371.976C480.737 372.048 480.641 372.084 480.521 372.084C480.377 372.084 480.261 372.056 480.173 372C480.085 371.936 479.977 371.844 479.849 371.724L477.185 369.264H477.161V371.58C477.161 371.916 476.997 372.084 476.669 372.084ZM486.387 372.084C486.275 372.084 486.179 372.056 486.099 372C486.019 371.944 485.967 371.868 485.943 371.772C485.927 371.668 485.951 371.556 486.015 371.436L489.867 363.96V364.392H485.547C485.403 364.392 485.291 364.356 485.211 364.284C485.131 364.204 485.091 364.096 485.091 363.96C485.091 363.824 485.131 363.72 485.211 363.648C485.291 363.576 485.403 363.54 485.547 363.54H490.311C490.455 363.54 490.571 363.576 490.659 363.648C490.747 363.72 490.791 363.824 490.791 363.96C490.791 364.072 490.775 364.172 490.743 364.26C490.719 364.34 490.683 364.432 490.635 364.536L486.939 371.748C486.883 371.86 486.811 371.944 486.723 372C486.635 372.056 486.523 372.084 486.387 372.084Z" fill="black"/>
<path opacity="0.7" d="M520.756 372.084C520.612 372.084 520.496 372.048 520.408 371.976C520.32 371.896 520.248 371.78 520.192 371.628L517.54 364.056C517.484 363.888 517.496 363.748 517.576 363.636C517.664 363.516 517.8 363.456 517.984 363.456C518.12 363.456 518.228 363.492 518.308 363.564C518.388 363.628 518.456 363.732 518.512 363.876L520.996 371.16H520.576L523.108 363.912C523.164 363.76 523.232 363.648 523.312 363.576C523.392 363.496 523.5 363.456 523.636 363.456C523.764 363.456 523.864 363.496 523.936 363.576C524.016 363.648 524.084 363.76 524.14 363.912L526.636 371.16H526.264L528.772 363.876C528.812 363.74 528.872 363.636 528.952 363.564C529.04 363.492 529.152 363.456 529.288 363.456C529.456 363.456 529.58 363.512 529.66 363.624C529.74 363.736 529.748 363.88 529.684 364.056L527.02 371.628C526.964 371.78 526.892 371.896 526.804 371.976C526.724 372.048 526.608 372.084 526.456 372.084C526.312 372.084 526.196 372.048 526.108 371.976C526.028 371.896 525.956 371.78 525.892 371.628L523.48 364.68H523.744L521.308 371.628C521.252 371.78 521.184 371.896 521.104 371.976C521.024 372.048 520.908 372.084 520.756 372.084ZM533.044 372.108C532.428 372.108 531.896 371.988 531.448 371.748C531.008 371.5 530.664 371.152 530.416 370.704C530.176 370.256 530.056 369.72 530.056 369.096C530.056 368.488 530.176 367.96 530.416 367.512C530.656 367.056 530.984 366.7 531.4 366.444C531.824 366.188 532.312 366.06 532.864 366.06C533.256 366.06 533.608 366.128 533.92 366.264C534.232 366.392 534.496 366.58 534.712 366.828C534.936 367.076 535.104 367.376 535.216 367.728C535.336 368.08 535.396 368.476 535.396 368.916C535.396 369.044 535.36 369.14 535.288 369.204C535.216 369.26 535.112 369.288 534.976 369.288H530.8V368.652H534.748L534.556 368.808C534.556 368.376 534.492 368.012 534.364 367.716C534.236 367.412 534.048 367.18 533.8 367.02C533.56 366.86 533.256 366.78 532.888 366.78C532.48 366.78 532.132 366.876 531.844 367.068C531.564 367.252 531.352 367.512 531.208 367.848C531.064 368.176 530.992 368.56 530.992 369V369.072C530.992 369.808 531.168 370.368 531.52 370.752C531.88 371.136 532.388 371.328 533.044 371.328C533.316 371.328 533.584 371.292 533.848 371.22C534.12 371.148 534.384 371.028 534.64 370.86C534.752 370.788 534.852 370.756 534.94 370.764C535.036 370.764 535.112 370.792 535.168 370.848C535.224 370.896 535.26 370.96 535.276 371.04C535.3 371.112 535.292 371.192 535.252 371.28C535.22 371.368 535.152 371.444 535.048 371.508C534.784 371.7 534.472 371.848 534.112 371.952C533.752 372.056 533.396 372.108 533.044 372.108ZM539.431 372.108C538.815 372.108 538.283 371.988 537.835 371.748C537.395 371.5 537.051 371.152 536.803 370.704C536.563 370.256 536.443 369.72 536.443 369.096C536.443 368.488 536.563 367.96 536.803 367.512C537.043 367.056 537.371 366.7 537.787 366.444C538.211 366.188 538.699 366.06 539.251 366.06C539.643 366.06 539.995 366.128 540.307 366.264C540.619 366.392 540.883 366.58 541.099 366.828C541.323 367.076 541.491 367.376 541.603 367.728C541.723 368.08 541.783 368.476 541.783 368.916C541.783 369.044 541.747 369.14 541.675 369.204C541.603 369.26 541.499 369.288 541.363 369.288H537.187V368.652H541.135L540.943 368.808C540.943 368.376 540.879 368.012 540.751 367.716C540.623 367.412 540.435 367.18 540.187 367.02C539.947 366.86 539.643 366.78 539.275 366.78C538.867 366.78 538.519 366.876 538.231 367.068C537.951 367.252 537.739 367.512 537.595 367.848C537.451 368.176 537.379 368.56 537.379 369V369.072C537.379 369.808 537.555 370.368 537.907 370.752C538.267 371.136 538.775 371.328 539.431 371.328C539.703 371.328 539.971 371.292 540.235 371.22C540.507 371.148 540.771 371.028 541.027 370.86C541.139 370.788 541.239 370.756 541.327 370.764C541.423 370.764 541.499 370.792 541.555 370.848C541.611 370.896 541.647 370.96 541.663 371.04C541.687 371.112 541.679 371.192 541.639 371.28C541.607 371.368 541.539 371.444 541.435 371.508C541.171 371.7 540.859 371.848 540.499 371.952C540.139 372.056 539.783 372.108 539.431 372.108ZM543.669 372.084C543.509 372.084 543.389 372.04 543.309 371.952C543.229 371.864 543.189 371.74 543.189 371.58V363.948C543.189 363.788 543.229 363.668 543.309 363.588C543.389 363.5 543.509 363.456 543.669 363.456C543.821 363.456 543.941 363.5 544.029 363.588C544.117 363.668 544.161 363.788 544.161 363.948V368.76H544.185L546.645 366.408C546.757 366.304 546.853 366.224 546.933 366.168C547.021 366.112 547.137 366.084 547.281 366.084C547.409 366.084 547.509 366.12 547.581 366.192C547.653 366.256 547.685 366.34 547.677 366.444C547.677 366.54 547.629 366.644 547.533 366.756L544.917 369.24V368.712L547.761 371.388C547.873 371.5 547.929 371.608 547.929 371.712C547.929 371.816 547.889 371.904 547.809 371.976C547.737 372.048 547.641 372.084 547.521 372.084C547.377 372.084 547.261 372.056 547.173 372C547.085 371.936 546.977 371.844 546.849 371.724L544.185 369.264H544.161V371.58C544.161 371.916 543.997 372.084 543.669 372.084ZM554.971 372.108C554.339 372.108 553.795 372.016 553.339 371.832C552.891 371.648 552.547 371.38 552.307 371.028C552.075 370.676 551.959 370.252 551.959 369.756C551.959 369.364 552.039 369.016 552.199 368.712C552.359 368.4 552.583 368.148 552.871 367.956C553.159 367.764 553.491 367.644 553.867 367.596V367.776C553.347 367.664 552.931 367.42 552.619 367.044C552.315 366.66 552.163 366.208 552.163 365.688C552.163 365.208 552.275 364.804 552.499 364.476C552.731 364.14 553.059 363.884 553.483 363.708C553.907 363.524 554.403 363.432 554.971 363.432C555.547 363.432 556.043 363.524 556.459 363.708C556.883 363.884 557.211 364.14 557.443 364.476C557.675 364.804 557.791 365.208 557.791 365.688C557.791 366.032 557.719 366.352 557.575 366.648C557.439 366.936 557.243 367.176 556.987 367.368C556.731 367.56 556.431 367.692 556.087 367.764V367.596C556.655 367.676 557.111 367.912 557.455 368.304C557.807 368.688 557.983 369.172 557.983 369.756C557.983 370.252 557.863 370.676 557.623 371.028C557.391 371.38 557.047 371.648 556.591 371.832C556.143 372.016 555.603 372.108 554.971 372.108ZM554.971 371.292C555.651 371.292 556.163 371.16 556.507 370.896C556.859 370.632 557.035 370.232 557.035 369.696C557.035 369.168 556.859 368.776 556.507 368.52C556.163 368.256 555.651 368.124 554.971 368.124C554.299 368.124 553.787 368.256 553.435 368.52C553.083 368.776 552.907 369.168 552.907 369.696C552.907 370.232 553.083 370.632 553.435 370.896C553.787 371.16 554.299 371.292 554.971 371.292ZM554.971 367.308C555.363 367.308 555.695 367.248 555.967 367.128C556.247 367 556.463 366.82 556.615 366.588C556.767 366.356 556.843 366.084 556.843 365.772C556.843 365.292 556.675 364.92 556.339 364.656C556.011 364.384 555.555 364.248 554.971 364.248C554.387 364.248 553.931 364.384 553.603 364.656C553.275 364.92 553.111 365.292 553.111 365.772C553.111 366.252 553.275 366.628 553.603 366.9C553.931 367.172 554.387 367.308 554.971 367.308Z" fill="black"/>
<path opacity="0.7" d="M587.756 372.084C587.612 372.084 587.496 372.048 587.408 371.976C587.32 371.896 587.248 371.78 587.192 371.628L584.54 364.056C584.484 363.888 584.496 363.748 584.576 363.636C584.664 363.516 584.8 363.456 584.984 363.456C585.12 363.456 585.228 363.492 585.308 363.564C585.388 363.628 585.456 363.732 585.512 363.876L587.996 371.16H587.576L590.108 363.912C590.164 363.76 590.232 363.648 590.312 363.576C590.392 363.496 590.5 363.456 590.636 363.456C590.764 363.456 590.864 363.496 590.936 363.576C591.016 363.648 591.084 363.76 591.14 363.912L593.636 371.16H593.264L595.772 363.876C595.812 363.74 595.872 363.636 595.952 363.564C596.04 363.492 596.152 363.456 596.288 363.456C596.456 363.456 596.58 363.512 596.66 363.624C596.74 363.736 596.748 363.88 596.684 364.056L594.02 371.628C593.964 371.78 593.892 371.896 593.804 371.976C593.724 372.048 593.608 372.084 593.456 372.084C593.312 372.084 593.196 372.048 593.108 371.976C593.028 371.896 592.956 371.78 592.892 371.628L590.48 364.68H590.744L588.308 371.628C588.252 371.78 588.184 371.896 588.104 371.976C588.024 372.048 587.908 372.084 587.756 372.084ZM600.044 372.108C599.428 372.108 598.896 371.988 598.448 371.748C598.008 371.5 597.664 371.152 597.416 370.704C597.176 370.256 597.056 369.72 597.056 369.096C597.056 368.488 597.176 367.96 597.416 367.512C597.656 367.056 597.984 366.7 598.4 366.444C598.824 366.188 599.312 366.06 599.864 366.06C600.256 366.06 600.608 366.128 600.92 366.264C601.232 366.392 601.496 366.58 601.712 366.828C601.936 367.076 602.104 367.376 602.216 367.728C602.336 368.08 602.396 368.476 602.396 368.916C602.396 369.044 602.36 369.14 602.288 369.204C602.216 369.26 602.112 369.288 601.976 369.288H597.8V368.652H601.748L601.556 368.808C601.556 368.376 601.492 368.012 601.364 367.716C601.236 367.412 601.048 367.18 600.8 367.02C600.56 366.86 600.256 366.78 599.888 366.78C599.48 366.78 599.132 366.876 598.844 367.068C598.564 367.252 598.352 367.512 598.208 367.848C598.064 368.176 597.992 368.56 597.992 369V369.072C597.992 369.808 598.168 370.368 598.52 370.752C598.88 371.136 599.388 371.328 600.044 371.328C600.316 371.328 600.584 371.292 600.848 371.22C601.12 371.148 601.384 371.028 601.64 370.86C601.752 370.788 601.852 370.756 601.94 370.764C602.036 370.764 602.112 370.792 602.168 370.848C602.224 370.896 602.26 370.96 602.276 371.04C602.3 371.112 602.292 371.192 602.252 371.28C602.22 371.368 602.152 371.444 602.048 371.508C601.784 371.7 601.472 371.848 601.112 371.952C600.752 372.056 600.396 372.108 600.044 372.108ZM606.431 372.108C605.815 372.108 605.283 371.988 604.835 371.748C604.395 371.5 604.051 371.152 603.803 370.704C603.563 370.256 603.443 369.72 603.443 369.096C603.443 368.488 603.563 367.96 603.803 367.512C604.043 367.056 604.371 366.7 604.787 366.444C605.211 366.188 605.699 366.06 606.251 366.06C606.643 366.06 606.995 366.128 607.307 366.264C607.619 366.392 607.883 366.58 608.099 366.828C608.323 367.076 608.491 367.376 608.603 367.728C608.723 368.08 608.783 368.476 608.783 368.916C608.783 369.044 608.747 369.14 608.675 369.204C608.603 369.26 608.499 369.288 608.363 369.288H604.187V368.652H608.135L607.943 368.808C607.943 368.376 607.879 368.012 607.751 367.716C607.623 367.412 607.435 367.18 607.187 367.02C606.947 366.86 606.643 366.78 606.275 366.78C605.867 366.78 605.519 366.876 605.231 367.068C604.951 367.252 604.739 367.512 604.595 367.848C604.451 368.176 604.379 368.56 604.379 369V369.072C604.379 369.808 604.555 370.368 604.907 370.752C605.267 371.136 605.775 371.328 606.431 371.328C606.703 371.328 606.971 371.292 607.235 371.22C607.507 371.148 607.771 371.028 608.027 370.86C608.139 370.788 608.239 370.756 608.327 370.764C608.423 370.764 608.499 370.792 608.555 370.848C608.611 370.896 608.647 370.96 608.663 371.04C608.687 371.112 608.679 371.192 608.639 371.28C608.607 371.368 608.539 371.444 608.435 371.508C608.171 371.7 607.859 371.848 607.499 371.952C607.139 372.056 606.783 372.108 606.431 372.108ZM610.669 372.084C610.509 372.084 610.389 372.04 610.309 371.952C610.229 371.864 610.189 371.74 610.189 371.58V363.948C610.189 363.788 610.229 363.668 610.309 363.588C610.389 363.5 610.509 363.456 610.669 363.456C610.821 363.456 610.941 363.5 611.029 363.588C611.117 363.668 611.161 363.788 611.161 363.948V368.76H611.185L613.645 366.408C613.757 366.304 613.853 366.224 613.933 366.168C614.021 366.112 614.137 366.084 614.281 366.084C614.409 366.084 614.509 366.12 614.581 366.192C614.653 366.256 614.685 366.34 614.677 366.444C614.677 366.54 614.629 366.644 614.533 366.756L611.917 369.24V368.712L614.761 371.388C614.873 371.5 614.929 371.608 614.929 371.712C614.929 371.816 614.889 371.904 614.809 371.976C614.737 372.048 614.641 372.084 614.521 372.084C614.377 372.084 614.261 372.056 614.173 372C614.085 371.936 613.977 371.844 613.849 371.724L611.185 369.264H611.161V371.58C611.161 371.916 610.997 372.084 610.669 372.084ZM621.383 372.108C621.023 372.108 620.647 372.036 620.255 371.892C619.863 371.748 619.519 371.54 619.223 371.268C619.135 371.204 619.079 371.128 619.055 371.04C619.039 370.952 619.043 370.868 619.067 370.788C619.091 370.7 619.131 370.628 619.187 370.572C619.251 370.508 619.327 370.476 619.415 370.476C619.503 370.468 619.595 370.5 619.691 370.572C619.963 370.804 620.243 370.972 620.531 371.076C620.819 371.18 621.111 371.232 621.407 371.232C621.927 371.232 622.367 371.104 622.727 370.848C623.095 370.592 623.371 370.204 623.555 369.684C623.747 369.164 623.843 368.52 623.843 367.752V366.636H623.951C623.903 367.084 623.767 367.476 623.543 367.812C623.327 368.148 623.047 368.404 622.703 368.58C622.359 368.756 621.971 368.844 621.539 368.844C621.043 368.844 620.603 368.732 620.219 368.508C619.835 368.284 619.535 367.968 619.319 367.56C619.103 367.152 618.995 366.692 618.995 366.18C618.995 365.644 619.107 365.172 619.331 364.764C619.563 364.348 619.879 364.024 620.279 363.792C620.687 363.552 621.155 363.432 621.683 363.432C622.347 363.432 622.911 363.596 623.375 363.924C623.847 364.244 624.203 364.712 624.443 365.328C624.683 365.944 624.803 366.688 624.803 367.56C624.803 368.296 624.727 368.944 624.575 369.504C624.423 370.064 624.199 370.54 623.903 370.932C623.607 371.316 623.247 371.608 622.823 371.808C622.399 372.008 621.919 372.108 621.383 372.108ZM621.743 368.016C622.103 368.016 622.419 367.936 622.691 367.776C622.963 367.616 623.175 367.396 623.327 367.116C623.479 366.828 623.555 366.5 623.555 366.132C623.555 365.764 623.479 365.44 623.327 365.16C623.175 364.88 622.963 364.66 622.691 364.5C622.419 364.34 622.103 364.26 621.743 364.26C621.391 364.26 621.079 364.34 620.807 364.5C620.543 364.66 620.331 364.88 620.171 365.16C620.019 365.44 619.943 365.764 619.943 366.132C619.943 366.5 620.019 366.828 620.171 367.116C620.331 367.396 620.543 367.616 620.807 367.776C621.079 367.936 621.391 368.016 621.743 368.016Z" fill="black"/>
<path opacity="0.7" d="M654.756 372.084C654.612 372.084 654.496 372.048 654.408 371.976C654.32 371.896 654.248 371.78 654.192 371.628L651.54 364.056C651.484 363.888 651.496 363.748 651.576 363.636C651.664 363.516 651.8 363.456 651.984 363.456C652.12 363.456 652.228 363.492 652.308 363.564C652.388 363.628 652.456 363.732 652.512 363.876L654.996 371.16H654.576L657.108 363.912C657.164 363.76 657.232 363.648 657.312 363.576C657.392 363.496 657.5 363.456 657.636 363.456C657.764 363.456 657.864 363.496 657.936 363.576C658.016 363.648 658.084 363.76 658.14 363.912L660.636 371.16H660.264L662.772 363.876C662.812 363.74 662.872 363.636 662.952 363.564C663.04 363.492 663.152 363.456 663.288 363.456C663.456 363.456 663.58 363.512 663.66 363.624C663.74 363.736 663.748 363.88 663.684 364.056L661.02 371.628C660.964 371.78 660.892 371.896 660.804 371.976C660.724 372.048 660.608 372.084 660.456 372.084C660.312 372.084 660.196 372.048 660.108 371.976C660.028 371.896 659.956 371.78 659.892 371.628L657.48 364.68H657.744L655.308 371.628C655.252 371.78 655.184 371.896 655.104 371.976C655.024 372.048 654.908 372.084 654.756 372.084ZM667.044 372.108C666.428 372.108 665.896 371.988 665.448 371.748C665.008 371.5 664.664 371.152 664.416 370.704C664.176 370.256 664.056 369.72 664.056 369.096C664.056 368.488 664.176 367.96 664.416 367.512C664.656 367.056 664.984 366.7 665.4 366.444C665.824 366.188 666.312 366.06 666.864 366.06C667.256 366.06 667.608 366.128 667.92 366.264C668.232 366.392 668.496 366.58 668.712 366.828C668.936 367.076 669.104 367.376 669.216 367.728C669.336 368.08 669.396 368.476 669.396 368.916C669.396 369.044 669.36 369.14 669.288 369.204C669.216 369.26 669.112 369.288 668.976 369.288H664.8V368.652H668.748L668.556 368.808C668.556 368.376 668.492 368.012 668.364 367.716C668.236 367.412 668.048 367.18 667.8 367.02C667.56 366.86 667.256 366.78 666.888 366.78C666.48 366.78 666.132 366.876 665.844 367.068C665.564 367.252 665.352 367.512 665.208 367.848C665.064 368.176 664.992 368.56 664.992 369V369.072C664.992 369.808 665.168 370.368 665.52 370.752C665.88 371.136 666.388 371.328 667.044 371.328C667.316 371.328 667.584 371.292 667.848 371.22C668.12 371.148 668.384 371.028 668.64 370.86C668.752 370.788 668.852 370.756 668.94 370.764C669.036 370.764 669.112 370.792 669.168 370.848C669.224 370.896 669.26 370.96 669.276 371.04C669.3 371.112 669.292 371.192 669.252 371.28C669.22 371.368 669.152 371.444 669.048 371.508C668.784 371.7 668.472 371.848 668.112 371.952C667.752 372.056 667.396 372.108 667.044 372.108ZM673.431 372.108C672.815 372.108 672.283 371.988 671.835 371.748C671.395 371.5 671.051 371.152 670.803 370.704C670.563 370.256 670.443 369.72 670.443 369.096C670.443 368.488 670.563 367.96 670.803 367.512C671.043 367.056 671.371 366.7 671.787 366.444C672.211 366.188 672.699 366.06 673.251 366.06C673.643 366.06 673.995 366.128 674.307 366.264C674.619 366.392 674.883 366.58 675.099 366.828C675.323 367.076 675.491 367.376 675.603 367.728C675.723 368.08 675.783 368.476 675.783 368.916C675.783 369.044 675.747 369.14 675.675 369.204C675.603 369.26 675.499 369.288 675.363 369.288H671.187V368.652H675.135L674.943 368.808C674.943 368.376 674.879 368.012 674.751 367.716C674.623 367.412 674.435 367.18 674.187 367.02C673.947 366.86 673.643 366.78 673.275 366.78C672.867 366.78 672.519 366.876 672.231 367.068C671.951 367.252 671.739 367.512 671.595 367.848C671.451 368.176 671.379 368.56 671.379 369V369.072C671.379 369.808 671.555 370.368 671.907 370.752C672.267 371.136 672.775 371.328 673.431 371.328C673.703 371.328 673.971 371.292 674.235 371.22C674.507 371.148 674.771 371.028 675.027 370.86C675.139 370.788 675.239 370.756 675.327 370.764C675.423 370.764 675.499 370.792 675.555 370.848C675.611 370.896 675.647 370.96 675.663 371.04C675.687 371.112 675.679 371.192 675.639 371.28C675.607 371.368 675.539 371.444 675.435 371.508C675.171 371.7 674.859 371.848 674.499 371.952C674.139 372.056 673.783 372.108 673.431 372.108ZM677.669 372.084C677.509 372.084 677.389 372.04 677.309 371.952C677.229 371.864 677.189 371.74 677.189 371.58V363.948C677.189 363.788 677.229 363.668 677.309 363.588C677.389 363.5 677.509 363.456 677.669 363.456C677.821 363.456 677.941 363.5 678.029 363.588C678.117 363.668 678.161 363.788 678.161 363.948V368.76H678.185L680.645 366.408C680.757 366.304 680.853 366.224 680.933 366.168C681.021 366.112 681.137 366.084 681.281 366.084C681.409 366.084 681.509 366.12 681.581 366.192C681.653 366.256 681.685 366.34 681.677 366.444C681.677 366.54 681.629 366.644 681.533 366.756L678.917 369.24V368.712L681.761 371.388C681.873 371.5 681.929 371.608 681.929 371.712C681.929 371.816 681.889 371.904 681.809 371.976C681.737 372.048 681.641 372.084 681.521 372.084C681.377 372.084 681.261 372.056 681.173 372C681.085 371.936 680.977 371.844 680.849 371.724L678.185 369.264H678.161V371.58C678.161 371.916 677.997 372.084 677.669 372.084ZM687.231 372C687.087 372 686.975 371.964 686.895 371.892C686.815 371.812 686.775 371.704 686.775 371.568C686.775 371.432 686.815 371.332 686.895 371.268C686.975 371.196 687.087 371.16 687.231 371.16H688.791V364.356H689.307L687.567 365.508C687.463 365.564 687.363 365.588 687.267 365.58C687.179 365.572 687.103 365.54 687.039 365.484C686.983 365.42 686.943 365.348 686.919 365.268C686.895 365.18 686.899 365.092 686.931 365.004C686.963 364.908 687.031 364.828 687.135 364.764L688.791 363.672C688.895 363.608 688.995 363.556 689.091 363.516C689.187 363.476 689.283 363.456 689.379 363.456C689.491 363.456 689.583 363.492 689.655 363.564C689.735 363.628 689.775 363.732 689.775 363.876V371.16H691.215C691.359 371.16 691.471 371.196 691.551 371.268C691.631 371.332 691.671 371.432 691.671 371.568C691.671 371.712 691.631 371.82 691.551 371.892C691.471 371.964 691.359 372 691.215 372H687.231ZM696.166 372.108C695.198 372.108 694.462 371.736 693.958 370.992C693.454 370.248 693.202 369.172 693.202 367.764C693.202 366.82 693.314 366.028 693.538 365.388C693.762 364.74 694.094 364.252 694.534 363.924C694.982 363.596 695.526 363.432 696.166 363.432C697.142 363.432 697.878 363.8 698.374 364.536C698.878 365.264 699.13 366.336 699.13 367.752C699.13 368.696 699.018 369.492 698.794 370.14C698.57 370.788 698.238 371.28 697.798 371.616C697.358 371.944 696.814 372.108 696.166 372.108ZM696.166 371.256C696.838 371.256 697.334 370.972 697.654 370.404C697.982 369.828 698.146 368.944 698.146 367.752C698.146 366.552 697.982 365.676 697.654 365.124C697.334 364.564 696.838 364.284 696.166 364.284C695.502 364.284 695.006 364.564 694.678 365.124C694.35 365.684 694.186 366.56 694.186 367.752C694.186 368.944 694.35 369.828 694.678 370.404C695.006 370.972 695.502 371.256 696.166 371.256Z" fill="black"/>
</g>
<g filter="url(#filter0_d_89_1724)">
<path d="M63 207.789L70.5881 215.946C78.2206 223.798 93.6187 240.569 108.706 252.537C123.838 264.963 138.881 272.587 154.412 256.578C169.5 240.569 184.587 199.403 200.119 199.632C215.162 199.403 230.294 240.569 245.381 252.537C260.779 264.963 276 248.192 291.087 256.578C306.441 264.963 321.706 296.981 336.794 285.013C352.059 272.587 367.412 216.174 382.5 219.986C397.721 223.798 413.119 253.549 428.206 285.796C443.338 318.347 458.381 318.347 473.912 297.993C491.109 278.51 499.505 270.889 517.997 260.159C537.505 250.311 549.794 264.963 564.881 248.421C580.279 232.183 595.5 183.394 610.587 175.238C625.941 167.386 641.206 199.403 656.294 203.749C671.559 207.789 686.912 183.394 694.456 171.197L702 159" stroke="#00D907" stroke-width="4" stroke-linecap="round"/>
</g>
<g filter="url(#filter1_d_89_1724)">
<circle cx="199" cy="200" r="7" fill="white"/>
<circle cx="199" cy="200" r="5.5" stroke="black" stroke-width="3"/>
</g>
<g filter="url(#filter2_d_89_1724)">
<circle cx="281" cy="254" r="7" fill="white"/>
<circle cx="281" cy="254" r="5.5" stroke="black" stroke-width="3"/>
</g>
<g filter="url(#filter3_d_89_1724)">
<circle cx="382" cy="220" r="7" fill="white"/>
<circle cx="382" cy="220" r="5.5" stroke="black" stroke-width="3"/>
</g>
<g filter="url(#filter4_d_89_1724)">
<circle cx="525" cy="258" r="7" fill="white"/>
<circle cx="525" cy="258" r="5.5" stroke="black" stroke-width="3"/>
</g>
<g filter="url(#filter5_d_89_1724)">
<circle cx="616" cy="174" r="7" fill="white"/>
<circle cx="616" cy="174" r="5.5" stroke="black" stroke-width="3"/>
</g>
<g filter="url(#filter6_d_89_1724)">
<path fill-rule="evenodd" clip-rule="evenodd" d="M348 144C342.477 144 338 148.477 338 154V190C338 195.523 342.477 200 348 200H376.804L381.134 207.5C381.519 208.167 382.481 208.167 382.866 207.5L387.196 200H417C422.523 200 427 195.523 427 190V154C427 148.477 422.523 144 417 144H348Z" fill="black"/>
</g>
<path opacity="0.8" d="M371.704 164.108C370.872 164.108 370.16 163.932 369.568 163.58C368.976 163.228 368.52 162.728 368.2 162.08C367.888 161.432 367.732 160.66 367.732 159.764C367.732 159.092 367.82 158.492 367.996 157.964C368.18 157.428 368.44 156.976 368.776 156.608C369.12 156.232 369.54 155.944 370.036 155.744C370.532 155.536 371.088 155.432 371.704 155.432C372.2 155.432 372.672 155.504 373.12 155.648C373.568 155.784 373.956 155.988 374.284 156.26C374.388 156.34 374.456 156.432 374.488 156.536C374.528 156.632 374.532 156.728 374.5 156.824C374.476 156.912 374.428 156.988 374.356 157.052C374.292 157.108 374.212 157.136 374.116 157.136C374.02 157.136 373.912 157.096 373.792 157.016C373.504 156.784 373.188 156.612 372.844 156.5C372.5 156.388 372.128 156.332 371.728 156.332C371.096 156.332 370.56 156.468 370.12 156.74C369.68 157.004 369.348 157.392 369.124 157.904C368.9 158.416 368.788 159.036 368.788 159.764C368.788 160.492 368.9 161.116 369.124 161.636C369.348 162.148 369.68 162.54 370.12 162.812C370.56 163.076 371.096 163.208 371.728 163.208C372.12 163.208 372.492 163.152 372.844 163.04C373.196 162.92 373.52 162.744 373.816 162.512C373.936 162.432 374.044 162.396 374.14 162.404C374.236 162.404 374.316 162.432 374.38 162.488C374.444 162.544 374.488 162.616 374.512 162.704C374.544 162.792 374.544 162.884 374.512 162.98C374.488 163.076 374.428 163.16 374.332 163.232C373.996 163.52 373.6 163.74 373.144 163.892C372.696 164.036 372.216 164.108 371.704 164.108ZM376.466 164.084C376.306 164.084 376.186 164.04 376.106 163.952C376.026 163.864 375.986 163.74 375.986 163.58V155.948C375.986 155.788 376.026 155.668 376.106 155.588C376.186 155.5 376.306 155.456 376.466 155.456C376.618 155.456 376.738 155.5 376.826 155.588C376.914 155.668 376.958 155.788 376.958 155.948V159.464H376.802C376.97 159 377.242 158.652 377.618 158.42C378.002 158.18 378.442 158.06 378.938 158.06C379.402 158.06 379.786 158.144 380.09 158.312C380.402 158.48 380.634 158.736 380.786 159.08C380.938 159.416 381.014 159.844 381.014 160.364V163.58C381.014 163.74 380.97 163.864 380.882 163.952C380.802 164.04 380.686 164.084 380.534 164.084C380.374 164.084 380.25 164.04 380.162 163.952C380.082 163.864 380.042 163.74 380.042 163.58V160.424C380.042 159.88 379.934 159.484 379.718 159.236C379.51 158.98 379.174 158.852 378.71 158.852C378.174 158.852 377.746 159.02 377.426 159.356C377.114 159.684 376.958 160.124 376.958 160.676V163.58C376.958 163.916 376.794 164.084 376.466 164.084ZM384.643 164.108C384.243 164.108 383.883 164.032 383.563 163.88C383.251 163.72 383.003 163.504 382.819 163.232C382.635 162.96 382.543 162.656 382.543 162.32C382.543 161.888 382.651 161.548 382.867 161.3C383.091 161.052 383.455 160.876 383.959 160.772C384.471 160.668 385.167 160.616 386.047 160.616H386.587V161.252H386.059C385.411 161.252 384.899 161.284 384.523 161.348C384.155 161.404 383.895 161.504 383.743 161.648C383.599 161.792 383.527 161.996 383.527 162.26C383.527 162.588 383.639 162.856 383.863 163.064C384.095 163.272 384.407 163.376 384.799 163.376C385.119 163.376 385.399 163.3 385.639 163.148C385.887 162.996 386.079 162.788 386.215 162.524C386.359 162.26 386.431 161.956 386.431 161.612V160.244C386.431 159.748 386.331 159.392 386.131 159.176C385.931 158.952 385.603 158.84 385.147 158.84C384.867 158.84 384.587 158.876 384.307 158.948C384.027 159.02 383.731 159.136 383.419 159.296C383.307 159.352 383.211 159.372 383.131 159.356C383.051 159.332 382.987 159.288 382.939 159.224C382.891 159.16 382.863 159.088 382.855 159.008C382.847 158.92 382.863 158.836 382.903 158.756C382.951 158.676 383.023 158.612 383.119 158.564C383.471 158.388 383.819 158.26 384.163 158.18C384.507 158.1 384.835 158.06 385.147 158.06C385.651 158.06 386.067 158.144 386.395 158.312C386.723 158.472 386.967 158.72 387.127 159.056C387.287 159.384 387.367 159.808 387.367 160.328V163.58C387.367 163.74 387.327 163.864 387.247 163.952C387.175 164.04 387.067 164.084 386.923 164.084C386.771 164.084 386.655 164.04 386.575 163.952C386.495 163.864 386.455 163.74 386.455 163.58V162.644H386.563C386.499 162.948 386.375 163.208 386.191 163.424C386.015 163.64 385.795 163.808 385.531 163.928C385.267 164.048 384.971 164.108 384.643 164.108ZM391.51 164.108C391.054 164.108 390.67 164.028 390.358 163.868C390.054 163.7 389.826 163.46 389.674 163.148C389.522 162.828 389.446 162.44 389.446 161.984V158.924H388.642C388.506 158.924 388.402 158.892 388.33 158.828C388.258 158.756 388.222 158.66 388.222 158.54C388.222 158.42 388.258 158.328 388.33 158.264C388.402 158.2 388.506 158.168 388.642 158.168H389.446V156.788C389.446 156.628 389.49 156.508 389.578 156.428C389.666 156.34 389.786 156.296 389.938 156.296C390.09 156.296 390.206 156.34 390.286 156.428C390.374 156.508 390.418 156.628 390.418 156.788V158.168H391.93C392.066 158.168 392.17 158.2 392.242 158.264C392.314 158.328 392.35 158.42 392.35 158.54C392.35 158.66 392.314 158.756 392.242 158.828C392.17 158.892 392.066 158.924 391.93 158.924H390.418V161.888C390.418 162.344 390.514 162.692 390.706 162.932C390.898 163.164 391.21 163.28 391.642 163.28C391.794 163.28 391.922 163.264 392.026 163.232C392.138 163.2 392.23 163.184 392.302 163.184C392.374 163.176 392.434 163.2 392.482 163.256C392.53 163.312 392.554 163.408 392.554 163.544C392.554 163.64 392.534 163.728 392.494 163.808C392.462 163.888 392.402 163.944 392.314 163.976C392.218 164.008 392.09 164.036 391.93 164.06C391.778 164.092 391.638 164.108 391.51 164.108ZM395.333 164.108C394.973 164.108 394.609 164.064 394.241 163.976C393.881 163.888 393.545 163.736 393.233 163.52C393.153 163.464 393.097 163.4 393.065 163.328C393.033 163.248 393.021 163.172 393.029 163.1C393.045 163.02 393.077 162.952 393.125 162.896C393.181 162.84 393.245 162.808 393.317 162.8C393.397 162.784 393.485 162.8 393.581 162.848C393.893 163.04 394.193 163.176 394.481 163.256C394.777 163.328 395.069 163.364 395.357 163.364C395.813 163.364 396.157 163.28 396.389 163.112C396.621 162.944 396.737 162.716 396.737 162.428C396.737 162.204 396.661 162.028 396.509 161.9C396.357 161.764 396.117 161.66 395.789 161.588L394.697 161.348C394.193 161.244 393.817 161.064 393.569 160.808C393.329 160.552 393.209 160.22 393.209 159.812C393.209 159.452 393.301 159.144 393.485 158.888C393.677 158.624 393.945 158.42 394.289 158.276C394.633 158.132 395.033 158.06 395.489 158.06C395.841 158.06 396.173 158.108 396.485 158.204C396.805 158.292 397.093 158.436 397.349 158.636C397.429 158.692 397.481 158.76 397.505 158.84C397.537 158.912 397.541 158.988 397.517 159.068C397.501 159.14 397.465 159.204 397.409 159.26C397.353 159.308 397.285 159.336 397.205 159.344C397.125 159.352 397.041 159.328 396.953 159.272C396.713 159.112 396.469 158.996 396.221 158.924C395.973 158.844 395.729 158.804 395.489 158.804C395.041 158.804 394.701 158.892 394.469 159.068C394.237 159.244 394.121 159.476 394.121 159.764C394.121 159.988 394.193 160.172 394.337 160.316C394.481 160.46 394.705 160.564 395.009 160.628L396.101 160.856C396.621 160.968 397.009 161.148 397.265 161.396C397.529 161.636 397.661 161.964 397.661 162.38C397.661 162.908 397.449 163.328 397.025 163.64C396.601 163.952 396.037 164.108 395.333 164.108Z" fill="white"/>
<path d="M375.48 186C375.256 186 375.08 185.936 374.952 185.808C374.824 185.68 374.76 185.509 374.76 185.296C374.76 185.072 374.824 184.901 374.952 184.784C375.08 184.667 375.256 184.608 375.48 184.608H377.432V176.096H378.264L375.928 177.584C375.757 177.68 375.597 177.717 375.448 177.696C375.309 177.675 375.187 177.616 375.08 177.52C374.984 177.424 374.915 177.307 374.872 177.168C374.84 177.029 374.851 176.885 374.904 176.736C374.968 176.587 375.08 176.464 375.24 176.368L377.448 174.976C377.629 174.869 377.8 174.784 377.96 174.72C378.131 174.645 378.291 174.608 378.44 174.608C378.621 174.608 378.771 174.661 378.888 174.768C379.016 174.864 379.08 175.029 379.08 175.264V184.608H380.872C381.107 184.608 381.288 184.667 381.416 184.784C381.544 184.901 381.608 185.072 381.608 185.296C381.608 185.52 381.544 185.696 381.416 185.824C381.288 185.941 381.107 186 380.872 186H375.48ZM387.218 186.144C386.62 186.144 386.012 186.064 385.394 185.904C384.775 185.733 384.236 185.483 383.778 185.152C383.607 185.045 383.49 184.917 383.426 184.768C383.372 184.608 383.362 184.464 383.394 184.336C383.426 184.197 383.49 184.08 383.586 183.984C383.692 183.888 383.82 183.835 383.97 183.824C384.119 183.803 384.284 183.845 384.466 183.952C384.924 184.229 385.372 184.432 385.81 184.56C386.247 184.677 386.7 184.736 387.17 184.736C387.682 184.736 388.114 184.661 388.466 184.512C388.818 184.363 389.079 184.144 389.25 183.856C389.431 183.568 389.522 183.221 389.522 182.816C389.522 182.208 389.319 181.755 388.914 181.456C388.519 181.147 387.943 180.992 387.186 180.992H386.098C385.852 180.992 385.666 180.933 385.538 180.816C385.41 180.688 385.346 180.512 385.346 180.288C385.346 180.075 385.41 179.909 385.538 179.792C385.666 179.664 385.852 179.6 386.098 179.6H387.026C387.484 179.6 387.874 179.525 388.194 179.376C388.514 179.216 388.759 178.997 388.93 178.72C389.111 178.432 389.202 178.085 389.202 177.68C389.202 177.136 389.02 176.72 388.658 176.432C388.306 176.133 387.788 175.984 387.106 175.984C386.668 175.984 386.252 176.043 385.858 176.16C385.474 176.277 385.074 176.485 384.658 176.784C384.498 176.891 384.343 176.939 384.194 176.928C384.055 176.907 383.932 176.853 383.826 176.768C383.73 176.672 383.66 176.555 383.618 176.416C383.586 176.277 383.596 176.133 383.65 175.984C383.703 175.835 383.81 175.707 383.97 175.6C384.418 175.269 384.924 175.019 385.49 174.848C386.055 174.667 386.636 174.576 387.234 174.576C387.98 174.576 388.62 174.693 389.154 174.928C389.698 175.163 390.108 175.499 390.386 175.936C390.674 176.373 390.818 176.896 390.818 177.504C390.818 177.963 390.732 178.379 390.562 178.752C390.391 179.125 390.146 179.445 389.826 179.712C389.516 179.968 389.138 180.149 388.69 180.256V180.08C389.468 180.208 390.071 180.528 390.498 181.04C390.924 181.541 391.138 182.171 391.138 182.928C391.138 183.589 390.978 184.165 390.658 184.656C390.348 185.136 389.9 185.504 389.314 185.76C388.727 186.016 388.028 186.144 387.218 186.144Z" fill="white"/>
<line x1="381.5" y1="344" x2="381.5" y2="227" stroke="black" stroke-dasharray="2 7"/>
<defs>
<filter id="filter0_d_89_1724" x="57" y="157" width="651" height="165.003" filterUnits="userSpaceOnUse" color-interpolation-filters="sRGB">
<feFlood flood-opacity="0" result="BackgroundImageFix"/>
<feColorMatrix in="SourceAlpha" type="matrix" values="0 0 0 0 0 0 0 0 0 0 0 0 0 0 0 0 0 0 127 0" result="hardAlpha"/>
<feOffset dy="4"/>
<feGaussianBlur stdDeviation="2"/>
<feColorMatrix type="matrix" values="0 0 0 0 0.376471 0 0 0 0 0.356863 0 0 0 0 1 0 0 0 0.17 0"/>
<feBlend mode="normal" in2="BackgroundImageFix" result="effect1_dropShadow_89_1724"/>
<feBlend mode="normal" in="SourceGraphic" in2="effect1_dropShadow_89_1724" result="shape"/>
</filter>
<filter id="filter1_d_89_1724" x="188" y="193" width="22" height="22" filterUnits="userSpaceOnUse" color-interpolation-filters="sRGB">
<feFlood flood-opacity="0" result="BackgroundImageFix"/>
<feColorMatrix in="SourceAlpha" type="matrix" values="0 0 0 0 0 0 0 0 0 0 0 0 0 0 0 0 0 0 127 0" result="hardAlpha"/>
<feOffset dy="4"/>
<feGaussianBlur stdDeviation="2"/>
<feColorMatrix type="matrix" values="0 0 0 0 0.376471 0 0 0 0 0.356863 0 0 0 0 1 0 0 0 0.17 0"/>
<feBlend mode="normal" in2="BackgroundImageFix" result="effect1_dropShadow_89_1724"/>
<feBlend mode="normal" in="SourceGraphic" in2="effect1_dropShadow_89_1724" result="shape"/>
</filter>
<filter id="filter2_d_89_1724" x="270" y="247" width="22" height="22" filterUnits="userSpaceOnUse" color-interpolation-filters="sRGB">
<feFlood flood-opacity="0" result="BackgroundImageFix"/>
<feColorMatrix in="SourceAlpha" type="matrix" values="0 0 0 0 0 0 0 0 0 0 0 0 0 0 0 0 0 0 127 0" result="hardAlpha"/>
<feOffset dy="4"/>
<feGaussianBlur stdDeviation="2"/>
<feColorMatrix type="matrix" values="0 0 0 0 0.376471 0 0 0 0 0.356863 0 0 0 0 1 0 0 0 0.17 0"/>
<feBlend mode="normal" in2="BackgroundImageFix" result="effect1_dropShadow_89_1724"/>
<feBlend mode="normal" in="SourceGraphic" in2="effect1_dropShadow_89_1724" result="shape"/>
</filter>
<filter id="filter3_d_89_1724" x="371" y="213" width="22" height="22" filterUnits="userSpaceOnUse" color-interpolation-filters="sRGB">
<feFlood flood-opacity="0" result="BackgroundImageFix"/>
<feColorMatrix in="SourceAlpha" type="matrix" values="0 0 0 0 0 0 0 0 0 0 0 0 0 0 0 0 0 0 127 0" result="hardAlpha"/>
<feOffset dy="4"/>
<feGaussianBlur stdDeviation="2"/>
<feColorMatrix type="matrix" values="0 0 0 0 0.376471 0 0 0 0 0.356863 0 0 0 0 1 0 0 0 0.17 0"/>
<feBlend mode="normal" in2="BackgroundImageFix" result="effect1_dropShadow_89_1724"/>
<feBlend mode="normal" in="SourceGraphic" in2="effect1_dropShadow_89_1724" result="shape"/>
</filter>
<filter id="filter4_d_89_1724" x="514" y="251" width="22" height="22" filterUnits="userSpaceOnUse" color-interpolation-filters="sRGB">
<feFlood flood-opacity="0" result="BackgroundImageFix"/>
<feColorMatrix in="SourceAlpha" type="matrix" values="0 0 0 0 0 0 0 0 0 0 0 0 0 0 0 0 0 0 127 0" result="hardAlpha"/>
<feOffset dy="4"/>
<feGaussianBlur stdDeviation="2"/>
<feColorMatrix type="matrix" values="0 0 0 0 0.376471 0 0 0 0 0.356863 0 0 0 0 1 0 0 0 0.17 0"/>
<feBlend mode="normal" in2="BackgroundImageFix" result="effect1_dropShadow_89_1724"/>
<feBlend mode="normal" in="SourceGraphic" in2="effect1_dropShadow_89_1724" result="shape"/>
</filter>
<filter id="filter5_d_89_1724" x="605" y="167" width="22" height="22" filterUnits="userSpaceOnUse" color-interpolation-filters="sRGB">
<feFlood flood-opacity="0" result="BackgroundImageFix"/>
<feColorMatrix in="SourceAlpha" type="matrix" values="0 0 0 0 0 0 0 0 0 0 0 0 0 0 0 0 0 0 127 0" result="hardAlpha"/>
<feOffset dy="4"/>
<feGaussianBlur stdDeviation="2"/>
<feColorMatrix type="matrix" values="0 0 0 0 0.376471 0 0 0 0 0.356863 0 0 0 0 1 0 0 0 0.17 0"/>
<feBlend mode="normal" in2="BackgroundImageFix" result="effect1_dropShadow_89_1724"/>
<feBlend mode="normal" in="SourceGraphic" in2="effect1_dropShadow_89_1724" result="shape"/>
</filter>
<filter id="filter6_d_89_1724" x="331" y="141" width="103" height="78" filterUnits="userSpaceOnUse" color-interpolation-filters="sRGB">
<feFlood flood-opacity="0" result="BackgroundImageFix"/>
<feColorMatrix in="SourceAlpha" type="matrix" values="0 0 0 0 0 0 0 0 0 0 0 0 0 0 0 0 0 0 127 0" result="hardAlpha"/>
<feOffset dy="4"/>
<feGaussianBlur stdDeviation="3.5"/>
<feColorMatrix type="matrix" values="0 0 0 0 0.0117647 0 0 0 0 0.00784314 0 0 0 0 0.160784 0 0 0 0.07 0"/>
<feBlend mode="normal" in2="BackgroundImageFix" result="effect1_dropShadow_89_1724"/>
<feBlend mode="normal" in="SourceGraphic" in2="effect1_dropShadow_89_1724" result="shape"/>
</filter>
</defs>
</svg>
