<svg width="19" height="19" viewBox="0 0 19 19" fill="none" xmlns="http://www.w3.org/2000/svg">
<path d="M13.94 9.21367C13.9043 9.12161 13.8508 9.0375 13.7825 8.96617L10.0325 5.21617C9.96257 5.14625 9.87955 5.09077 9.78819 5.05293C9.69682 5.01508 9.59889 4.99561 9.5 4.99561C9.30027 4.99561 9.10873 5.07495 8.9675 5.21617C8.89757 5.2861 8.8421 5.36912 8.80426 5.46049C8.76641 5.55185 8.74693 5.64978 8.74693 5.74867C8.74693 5.9484 8.82627 6.13995 8.9675 6.28117L11.4425 8.74867H5.75C5.55109 8.74867 5.36032 8.82769 5.21967 8.96834C5.07902 9.109 5 9.29976 5 9.49867C5 9.69759 5.07902 9.88835 5.21967 10.029C5.36032 10.1697 5.55109 10.2487 5.75 10.2487H11.4425L8.9675 12.7162C8.8972 12.7859 8.84141 12.8688 8.80333 12.9602C8.76526 13.0516 8.74565 13.1497 8.74565 13.2487C8.74565 13.3477 8.76526 13.4457 8.80333 13.5371C8.84141 13.6285 8.8972 13.7115 8.9675 13.7812C9.03722 13.8515 9.12017 13.9073 9.21157 13.9453C9.30296 13.9834 9.40099 14.003 9.5 14.003C9.59901 14.003 9.69704 13.9834 9.78843 13.9453C9.87983 13.9073 9.96278 13.8515 10.0325 13.7812L13.7825 10.0312C13.8508 9.95985 13.9043 9.87574 13.94 9.78367C14.015 9.60108 14.015 9.39627 13.94 9.21367Z" fill="white"/>
</svg>
