<svg width="57" height="57" viewBox="0 0 57 57" fill="none" xmlns="http://www.w3.org/2000/svg">
<g clip-path="url(#clip0_2_1283)">
<path d="M30.25 11.1086C27.3042 11.1072 24.433 12.035 22.0451 13.7599C19.6572 15.4849 17.8742 17.9191 16.95 20.7161C16.8848 20.9423 16.7746 21.153 16.6261 21.3356C16.4775 21.5182 16.2937 21.6689 16.0855 21.7788C15.8774 21.8887 15.6492 21.9555 15.4146 21.9751C15.18 21.9948 14.9439 21.9669 14.7204 21.8932C14.4968 21.8194 14.2905 21.7014 14.1136 21.546C13.9368 21.3907 13.7931 21.2013 13.6912 20.9891C13.5892 20.7769 13.5311 20.5464 13.5204 20.3113C13.5096 20.0761 13.5464 19.8412 13.6285 19.6206C14.8434 15.9519 17.238 12.7883 20.4391 10.623C23.6401 8.45775 27.4677 7.41249 31.3249 7.65023C35.1822 7.88796 38.8525 9.39533 41.7634 11.9373C44.6743 14.4793 46.6623 17.913 47.4175 21.7031C50.0574 22.0597 52.4631 23.4064 54.1473 25.4703C55.8314 27.5343 56.6682 30.1612 56.4879 32.819C56.3077 35.4767 55.1241 37.9667 53.1767 39.7844C51.2293 41.6021 48.6639 42.6117 46 42.6086H16.25C15.7859 42.6086 15.3408 42.4242 15.0126 42.0961C14.6844 41.7679 14.5 41.3227 14.5 40.8586C14.5 40.3945 14.6844 39.9494 15.0126 39.6212C15.3408 39.293 15.7859 39.1086 16.25 39.1086H46C47.8565 39.1091 49.6372 38.372 50.9503 37.0596C52.2633 35.7472 53.0013 33.9669 53.0018 32.1104C53.0022 30.2539 52.2652 28.4732 50.9527 27.1601C49.6403 25.847 47.86 25.1091 46.0035 25.1086H45.9125C45.4799 25.1113 45.0616 24.9535 44.7384 24.6659C44.4153 24.3783 44.2101 23.9811 44.1625 23.5511C43.7794 20.1293 42.1488 16.9686 39.5822 14.6732C37.0157 12.3778 33.6932 11.1088 30.25 11.1086ZM0.500008 26.8586C0.500008 26.3945 0.684382 25.9494 1.01257 25.6212C1.34076 25.293 1.78588 25.1086 2.25001 25.1086H19.75C20.2141 25.1086 20.6593 25.293 20.9874 25.6212C21.3156 25.9494 21.5 26.3945 21.5 26.8586C21.5 27.3228 21.3156 27.7679 20.9874 28.0961C20.6593 28.4243 20.2141 28.6086 19.75 28.6086H2.25001C1.78588 28.6086 1.34076 28.4243 1.01257 28.0961C0.684382 27.7679 0.500008 27.3228 0.500008 26.8586ZM7.50001 33.8586C7.50001 33.3945 7.68438 32.9494 8.01257 32.6212C8.34076 32.293 8.78588 32.1086 9.25001 32.1086H40.75C41.2141 32.1086 41.6593 32.293 41.9874 32.6212C42.3156 32.9494 42.5 33.3945 42.5 33.8586C42.5 34.3228 42.3156 34.7679 41.9874 35.0961C41.6593 35.4243 41.2141 35.6086 40.75 35.6086H9.25001C8.78588 35.6086 8.34076 35.4243 8.01257 35.0961C7.68438 34.7679 7.50001 34.3228 7.50001 33.8586ZM0.500008 47.8586C0.500008 47.3945 0.684382 46.9494 1.01257 46.6212C1.34076 46.293 1.78588 46.1086 2.25001 46.1086H33.75C34.2141 46.1086 34.6593 46.293 34.9874 46.6212C35.3156 46.9494 35.5 47.3945 35.5 47.8586C35.5 48.3227 35.3156 48.7679 34.9874 49.0961C34.6593 49.4242 34.2141 49.6086 33.75 49.6086H2.25001C1.78588 49.6086 1.34076 49.4242 1.01257 49.0961C0.684382 48.7679 0.500008 48.3227 0.500008 47.8586Z" fill="#184E7F"/>
</g>
<defs>
<clipPath id="clip0_2_1283">
<rect width="56" height="56" fill="white" transform="translate(0.500008 0.608643)"/>
</clipPath>
</defs>
</svg>
