<svg width="12" height="12" viewBox="0 0 12 12" fill="none" xmlns="http://www.w3.org/2000/svg">
<path d="M0 9.63998V11.6666C0 11.8533 0.146667 12 0.333333 12H2.36C2.44667 12 2.53333 11.9666 2.59333 11.9L9.87333 4.62665L7.37333 2.12665L0.1 9.39998C0.0333334 9.46665 0 9.54665 0 9.63998ZM11.8067 2.69332C11.8685 2.63164 11.9175 2.55838 11.951 2.47773C11.9844 2.39708 12.0016 2.31063 12.0016 2.22331C12.0016 2.136 11.9844 2.04955 11.951 1.9689C11.9175 1.88825 11.8685 1.81499 11.8067 1.75331L10.2467 0.193315C10.185 0.131512 10.1117 0.0824806 10.0311 0.0490263C9.95043 0.015572 9.86398 -0.00164795 9.77667 -0.00164795C9.68935 -0.00164795 9.6029 0.015572 9.52225 0.0490263C9.4416 0.0824806 9.36834 0.131512 9.30667 0.193315L8.08667 1.41331L10.5867 3.91331L11.8067 2.69332Z" fill="#606060"/>
</svg>
